<svg xmlns="http://www.w3.org/2000/svg" xmlns:xlink="http://www.w3.org/1999/xlink" width="136" zoomAndPan="magnify" viewBox="0 0 102 101.999999" height="136" preserveAspectRatio="xMidYMid meet" version="1.0"><defs><clipPath id="c478a3d074"><path d="M 14.574219 14.71875 L 86.898438 14.71875 L 86.898438 87.042969 L 14.574219 87.042969 Z M 14.574219 14.71875 " clip-rule="nonzero"/></clipPath><clipPath id="5e66207dbc"><path d="M 50.734375 14.71875 C 30.765625 14.71875 14.574219 30.910156 14.574219 50.882812 C 14.574219 70.851562 30.765625 87.042969 50.734375 87.042969 C 70.707031 87.042969 86.898438 70.851562 86.898438 50.882812 C 86.898438 30.910156 70.707031 14.71875 50.734375 14.71875 Z M 50.734375 14.71875 " clip-rule="nonzero"/></clipPath><clipPath id="c1bca3f75a"><path d="M 30.335938 29 L 70.835938 29 L 70.835938 74.167969 L 30.335938 74.167969 Z M 30.335938 29 " clip-rule="nonzero"/></clipPath><clipPath id="183aee002e"><path d="M 0 0 L 101.25 0 L 101.25 101.25 L 0 101.25 Z M 0 0 " clip-rule="nonzero"/></clipPath></defs><g clip-path="url(#c478a3d074)"><g clip-path="url(#5e66207dbc)"><path fill="#006a8e" d="M 14.574219 14.71875 L 86.898438 14.71875 L 86.898438 87.042969 L 14.574219 87.042969 Z M 14.574219 14.71875 " fill-opacity="1" fill-rule="nonzero"/></g></g><g clip-path="url(#c1bca3f75a)"><path fill="#ffffff" d="M 68.566406 40.378906 L 66.589844 40.378906 C 67.496094 39.359375 67.90625 38.324219 67.789062 37.277344 C 67.523438 34.933594 64.71875 33.582031 64.394531 33.429688 C 63.378906 32.921875 63.378906 32.578125 63.378906 31.953125 C 63.378906 30.984375 63.242188 30.046875 61.585938 29.21875 C 58.5625 27.707031 53.269531 34.757812 51.777344 36.867188 L 48.992188 36.867188 C 47.503906 34.761719 42.210938 27.699219 39.183594 29.214844 C 37.527344 30.042969 37.390625 30.980469 37.390625 31.953125 C 37.390625 32.578125 37.390625 32.921875 36.375 33.429688 C 36.085938 33.5625 33.246094 34.917969 32.976562 37.277344 C 32.859375 38.324219 33.269531 39.359375 34.175781 40.378906 L 32.902344 40.378906 C 31.503906 40.378906 30.367188 41.515625 30.367188 42.910156 L 30.367188 49.082031 C 30.367188 50.332031 31.28125 51.367188 32.476562 51.570312 L 32.476562 71.242188 C 32.476562 72.808594 33.75 74.085938 35.320312 74.085938 L 66.148438 74.085938 C 67.714844 74.085938 68.992188 72.808594 68.992188 71.242188 L 68.992188 51.570312 C 70.183594 51.367188 71.097656 50.332031 71.097656 49.082031 L 71.097656 42.910156 C 71.097656 41.515625 69.960938 40.378906 68.566406 40.378906 Z M 66.390625 37.4375 C 66.492188 38.347656 65.863281 39.335938 64.535156 40.378906 L 57.121094 40.378906 C 59.605469 39.214844 62.816406 37.355469 64.347656 34.996094 C 65.148438 35.476562 66.273438 36.371094 66.390625 37.4375 Z M 46.519531 40.074219 C 44.6875 39.367188 40.570312 37.589844 38.363281 35.207031 C 40.558594 35.835938 44.246094 37.144531 46.519531 39.285156 Z M 47.925781 38.5625 C 47.925781 38.402344 48.054688 38.269531 48.214844 38.269531 L 52.550781 38.269531 C 52.710938 38.269531 52.839844 38.402344 52.839844 38.5625 L 52.839844 40.378906 L 47.925781 40.378906 Z M 62.394531 35.210938 C 60.1875 37.59375 56.078125 39.363281 54.246094 40.074219 L 54.246094 39.289062 C 56.515625 37.152344 60.195312 35.84375 62.394531 35.210938 Z M 60.957031 30.472656 C 61.972656 30.984375 61.972656 31.328125 61.972656 31.953125 C 61.972656 32.5625 62.027344 33.160156 62.480469 33.722656 C 60.425781 34.277344 56.65625 35.511719 53.980469 37.65625 C 53.824219 37.414062 53.609375 37.21875 53.359375 37.082031 C 55.824219 33.734375 59.546875 29.761719 60.957031 30.472656 Z M 38.796875 31.953125 C 38.796875 31.324219 38.796875 30.980469 39.8125 30.472656 C 41.230469 29.761719 44.945312 33.730469 47.410156 37.078125 C 47.15625 37.21875 46.941406 37.414062 46.789062 37.652344 C 44.113281 35.511719 40.34375 34.277344 38.289062 33.722656 C 38.742188 33.15625 38.796875 32.558594 38.796875 31.953125 Z M 34.371094 37.4375 C 34.492188 36.371094 35.617188 35.476562 36.417969 34.992188 C 37.949219 37.355469 41.15625 39.210938 43.644531 40.378906 L 36.230469 40.378906 C 34.902344 39.335938 34.269531 38.347656 34.371094 37.4375 Z M 31.773438 49.082031 L 31.773438 42.910156 C 31.773438 42.289062 32.28125 41.78125 32.902344 41.78125 L 45.117188 41.78125 L 45.117188 50.210938 L 32.902344 50.210938 C 32.28125 50.210938 31.773438 49.703125 31.773438 49.082031 Z M 33.878906 71.242188 L 33.878906 51.613281 L 45.117188 51.613281 L 45.117188 72.679688 L 35.320312 72.679688 C 34.527344 72.679688 33.878906 72.035156 33.878906 71.242188 Z M 46.519531 50.910156 L 46.519531 41.78125 L 47.21875 41.78125 C 47.222656 41.78125 47.222656 41.78125 47.222656 41.78125 L 53.539062 41.78125 C 53.542969 41.78125 53.542969 41.78125 53.542969 41.78125 L 54.945312 41.78125 L 54.945312 72.679688 L 46.519531 72.679688 Z M 67.585938 71.242188 C 67.585938 72.035156 66.941406 72.679688 66.148438 72.679688 L 56.351562 72.679688 L 56.351562 51.613281 L 67.585938 51.613281 Z M 69.695312 49.082031 C 69.695312 49.703125 69.1875 50.210938 68.566406 50.210938 L 56.351562 50.210938 L 56.351562 41.78125 L 68.566406 41.78125 C 69.1875 41.78125 69.695312 42.289062 69.695312 42.910156 Z M 69.695312 49.082031 " fill-opacity="1" fill-rule="nonzero"/></g><g clip-path="url(#183aee002e)"><path fill="#0d181f" d="M 50.742188 15.09375 C 31.054688 15.09375 15.09375 31.054688 15.09375 50.742188 C 15.09375 70.429688 31.054688 86.390625 50.742188 86.390625 C 70.429688 86.390625 86.390625 70.429688 86.390625 50.742188 C 86.390625 31.054688 70.429688 15.09375 50.742188 15.09375 Z M 87.164062 50.742188 C 87.164062 70.855469 70.855469 87.164062 50.742188 87.164062 C 30.625 87.164062 14.320312 70.855469 14.320312 50.742188 C 14.320312 30.625 30.625 14.320312 50.742188 14.320312 C 70.855469 14.320312 87.164062 30.625 87.164062 50.742188 Z M 7.992188 45.292969 C 8.234375 43.730469 7.265625 42.996094 6.398438 42.730469 C 6.03125 42.621094 6.097656 41.808594 7.125 41.625 C 5.726562 41.230469 5.480469 42.210938 5.703125 42.636719 C 5.078125 42.292969 3.984375 42.617188 4.023438 43.460938 C 4.261719 43.027344 4.96875 42.851562 5.382812 43.175781 C 4.839844 43.359375 4.707031 44.261719 5.085938 44.824219 C 5.347656 45.210938 5.921875 45.304688 6.316406 45.121094 C 6.765625 44.910156 6.828125 44.394531 6.636719 44.101562 C 6.4375 43.796875 5.953125 43.785156 5.734375 44.011719 C 6.085938 44.046875 6.304688 44.273438 6.199219 44.476562 C 6.046875 44.78125 5.742188 44.6875 5.609375 44.433594 C 5.339844 43.917969 5.847656 43.285156 6.453125 43.449219 C 6.90625 43.601562 7.742188 43.851562 7.992188 45.292969 Z M 4.542969 51.417969 C 4.226562 52.289062 2.929688 52.6875 2.203125 53.320312 C 2.09375 53.417969 2.164062 53.609375 2.351562 53.484375 C 2.625 53.296875 2.996094 53.644531 2.722656 53.949219 C 2.550781 54.148438 2.171875 54.066406 2.027344 53.988281 C 1.8125 53.867188 1.773438 53.566406 1.78125 53.414062 C 1.820312 52.644531 3.53125 52.109375 2.640625 51.550781 C 1.835938 52.289062 0.859375 51.199219 0.0078125 50.980469 C 0.855469 50.734375 1.796875 49.617188 2.621094 50.328125 C 3.496094 49.742188 1.769531 49.261719 1.703125 48.496094 C 1.691406 48.339844 1.722656 48.039062 1.933594 47.914062 C 2.074219 47.832031 2.453125 47.734375 2.632812 47.929688 C 2.910156 48.230469 2.554688 48.585938 2.273438 48.40625 C 2.082031 48.289062 2.015625 48.480469 2.128906 48.574219 C 2.875 49.183594 4.183594 49.542969 4.527344 50.40625 C 4.796875 50.414062 5.015625 50.632812 5.019531 50.902344 C 5.023438 51.175781 4.8125 51.402344 4.542969 51.417969 Z M 11.65625 50.488281 C 11.046875 51.015625 10.390625 51.070312 9.738281 50.59375 C 8.863281 49.953125 9.21875 48.515625 9.71875 47.773438 C 10.1875 47.082031 10.910156 46.445312 11.734375 46.109375 C 11.816406 46.300781 11.863281 46.597656 11.921875 46.816406 C 11.308594 47.160156 10.621094 47.75 10.363281 48.152344 C 10.117188 48.542969 9.652344 49.613281 10.171875 49.996094 C 10.4375 50.191406 10.648438 50.210938 10.921875 50.039062 C 11.066406 50.054688 11.671875 50.402344 11.65625 50.488281 Z M 9.925781 44.5 C 10.246094 44.847656 10.210938 45.378906 9.863281 45.714844 C 9.5 46.0625 9.039062 46.050781 8.640625 45.851562 C 8.125 45.59375 8.222656 44.816406 8.542969 44.40625 C 8.890625 43.964844 9.503906 43.644531 10.140625 43.671875 C 12.589844 43.789062 13.59375 47.367188 12.5 49.40625 C 12.472656 49.457031 12.480469 49.464844 12.449219 49.511719 C 12.234375 49.246094 12 49.136719 11.796875 49.042969 C 12.515625 47.746094 12.015625 44.132812 9.925781 44.5 Z M 5.410156 50.992188 C 4.808594 51.609375 4.324219 52.671875 4.371094 53.675781 C 4.429688 54.996094 5.113281 56.304688 6.59375 56.152344 C 7.125 56.097656 7.550781 55.695312 7.570312 55.125 C 7.601562 54.101562 6.214844 53.253906 5.363281 53.945312 C 5.25 53.070312 5.523438 52.316406 6.09375 51.667969 C 5.929688 51.539062 5.542969 51.167969 5.410156 50.992188 Z M 9.066406 48.910156 C 8.160156 49.078125 7.234375 49.460938 6.488281 50.050781 C 6.65625 50.269531 6.964844 50.515625 7.179688 50.722656 C 7.753906 50.378906 8.5 50.070312 9.105469 49.914062 C 8.984375 49.734375 8.902344 49.203125 9.066406 48.910156 Z M 12.574219 52.058594 C 12.847656 51.6875 12.96875 51.226562 12.90625 50.675781 C 12.757812 49.410156 11.394531 48.847656 10.234375 48.808594 C 10.039062 49.097656 10.027344 49.507812 10.15625 49.8125 C 10.859375 49.855469 11.863281 50.089844 11.945312 50.785156 C 11.964844 50.964844 11.941406 51.121094 11.878906 51.257812 C 12.054688 51.394531 12.449219 51.832031 12.574219 52.058594 Z M 5.828125 46.9375 C 6.019531 47.53125 6.644531 47.839844 7.253906 47.65625 C 7.886719 47.46875 8.171875 46.929688 8.203125 46.351562 C 8.242188 45.589844 7.292969 45.199219 6.613281 45.300781 C 5.882812 45.410156 5.121094 45.90625 4.742188 46.648438 C 3.285156 49.523438 6.722656 52.992188 9.757812 53.0625 C 10.5 53.082031 11.152344 52.972656 11.667969 52.746094 C 11.488281 52.476562 11.257812 52.132812 10.859375 51.914062 C 10.570312 51.980469 10.234375 52.015625 9.871094 52.027344 C 7.949219 52.074219 4.03125 49.117188 5.828125 46.9375 Z M 13.019531 55.304688 C 13.1875 54.292969 13.042969 53.210938 12.566406 52.398438 C 11.789062 51.085938 10.6875 50.578125 9.753906 51.324219 C 9.5625 51.480469 9.433594 51.621094 9.355469 51.835938 C 9.460938 51.90625 9.921875 51.929688 10.132812 51.921875 C 10.15625 51.894531 10.183594 51.925781 10.210938 51.902344 C 10.847656 51.394531 11.539062 52.269531 11.847656 52.742188 C 12.15625 53.210938 12.300781 54.003906 12.234375 54.84375 C 12.519531 54.96875 12.796875 55.128906 13.019531 55.304688 Z M 9.148438 62.03125 C 8.78125 60.496094 7.605469 60.1875 6.699219 60.273438 C 6.316406 60.3125 6.070312 59.539062 6.949219 58.976562 C 5.507812 59.144531 5.65625 60.144531 6.019531 60.453125 C 5.316406 60.371094 4.425781 61.089844 4.785156 61.855469 C 4.839844 61.363281 5.425781 60.929688 5.929688 61.074219 C 5.5 61.449219 5.71875 62.335938 6.289062 62.710938 C 6.675781 62.96875 7.242188 62.835938 7.535156 62.515625 C 7.871094 62.144531 7.734375 61.648438 7.445312 61.449219 C 7.144531 61.246094 6.691406 61.417969 6.574219 61.710938 C 6.914062 61.609375 7.203125 61.734375 7.183594 61.964844 C 7.15625 62.304688 6.84375 62.335938 6.625 62.152344 C 6.175781 61.773438 6.402344 60.996094 7.027344 60.917969 C 7.5 60.882812 8.371094 60.796875 9.148438 62.03125 Z M 8.304688 69.011719 C 8.34375 69.9375 7.296875 70.800781 6.867188 71.664062 C 6.800781 71.792969 6.941406 71.945312 7.066406 71.757812 C 7.25 71.480469 7.722656 71.660156 7.589844 72.046875 C 7.503906 72.296875 7.121094 72.363281 6.960938 72.347656 C 6.714844 72.316406 6.5625 72.054688 6.511719 71.910156 C 6.257812 71.1875 7.632812 70.039062 6.597656 69.863281 C 6.136719 70.847656 4.816406 70.214844 3.945312 70.339844 C 4.632812 69.789062 5.078125 68.398438 6.113281 68.738281 C 6.695312 67.863281 4.917969 68.078125 4.5625 67.394531 C 4.492188 67.257812 4.40625 66.964844 4.554688 66.769531 C 4.652344 66.640625 4.964844 66.40625 5.207031 66.515625 C 5.578125 66.6875 5.382812 67.152344 5.054688 67.097656 C 4.832031 67.058594 4.847656 67.261719 4.988281 67.304688 C 5.910156 67.585938 7.257812 67.414062 7.902344 68.082031 C 8.15625 67.984375 8.441406 68.105469 8.550781 68.351562 C 8.65625 68.605469 8.546875 68.894531 8.304688 69.011719 Z M 13.402344 60.308594 C 13.648438 60.546875 13.855469 60.738281 14.066406 61.015625 C 14.574219 59.289062 14.371094 56.957031 13.105469 55.546875 C 12.261719 54.605469 10.539062 54.722656 10.148438 53.191406 L 9.367188 53.164062 C 9.925781 55.648438 11.9375 55.113281 12.777344 56.488281 C 13.546875 57.753906 13.582031 58.890625 13.402344 60.308594 Z M 14.523438 65.433594 C 14.160156 66.152344 13.578125 66.457031 12.789062 66.265625 C 11.738281 66.007812 11.515625 64.542969 11.695312 63.664062 C 11.863281 62.847656 12.289062 61.984375 12.921875 61.359375 C 13.070312 61.503906 13.226562 61.761719 13.363281 61.941406 C 12.929688 62.492188 12.519531 63.296875 12.4375 63.773438 C 12.355469 64.222656 12.335938 65.394531 12.960938 65.546875 C 13.28125 65.625 13.484375 65.566406 13.671875 65.300781 C 13.8125 65.261719 14.507812 65.347656 14.523438 65.433594 Z M 10.636719 60.5625 C 11.066406 60.765625 11.238281 61.265625 11.042969 61.707031 C 10.839844 62.167969 10.40625 62.335938 9.964844 62.304688 C 9.386719 62.261719 9.183594 61.503906 9.324219 61.003906 C 9.476562 60.464844 9.917969 59.929688 10.519531 59.714844 C 12.828125 58.886719 15.121094 61.8125 14.890625 64.113281 C 14.886719 64.167969 14.890625 64.175781 14.882812 64.230469 C 14.582031 64.066406 14.324219 64.054688 14.101562 64.046875 C 14.269531 62.574219 12.429688 59.425781 10.636719 60.5625 Z M 8.941406 68.285156 C 8.621094 69.085938 8.578125 70.253906 9.007812 71.164062 C 9.566406 72.363281 10.699219 73.308594 12.007812 72.601562 C 12.476562 72.351562 12.71875 71.816406 12.515625 71.28125 C 12.15625 70.324219 10.550781 70.070312 10.027344 71.035156 C 9.585938 70.269531 9.554688 69.464844 9.832031 68.648438 C 9.632812 68.59375 9.132812 68.394531 8.941406 68.285156 Z M 11.527344 64.964844 C 10.753906 65.46875 10.042969 66.175781 9.582031 67.003906 C 9.816406 67.140625 10.195312 67.25 10.472656 67.359375 C 10.871094 66.824219 11.445312 66.253906 11.945312 65.878906 C 11.761719 65.757812 11.488281 65.296875 11.527344 64.964844 Z M 15.96875 66.535156 C 16.082031 66.089844 16.019531 65.613281 15.75 65.132812 C 15.128906 64.019531 13.652344 64.015625 12.566406 64.425781 C 12.496094 64.765625 12.640625 65.152344 12.875 65.382812 C 13.542969 65.152344 14.5625 64.988281 14.902344 65.601562 C 14.988281 65.757812 15.027344 65.910156 15.023438 66.0625 C 15.238281 66.121094 15.769531 66.375 15.96875 66.535156 Z M 7.78125 64.382812 C 8.183594 64.855469 8.878906 64.902344 9.371094 64.5 C 9.882812 64.085938 9.945312 63.480469 9.75 62.929688 C 9.5 62.214844 8.46875 62.214844 7.882812 62.566406 C 7.25 62.949219 6.730469 63.695312 6.667969 64.527344 C 6.417969 67.742188 10.917969 69.632812 13.75 68.539062 C 14.445312 68.273438 15.003906 67.921875 15.394531 67.519531 C 15.128906 67.339844 14.78125 67.109375 14.328125 67.058594 C 14.089844 67.230469 13.792969 67.390625 13.460938 67.539062 C 11.699219 68.316406 6.949219 67.082031 7.78125 64.382812 Z M 17.621094 69.367188 C 17.390625 68.367188 16.84375 67.417969 16.089844 66.851562 C 14.875 65.9375 13.664062 65.886719 13.085938 66.9375 C 12.964844 67.152344 12.902344 67.332031 12.914062 67.558594 C 13.035156 67.585938 13.472656 67.429688 13.664062 67.339844 C 13.675781 67.308594 13.710938 67.328125 13.726562 67.296875 C 14.121094 66.582031 15.09375 67.128906 15.5625 67.445312 C 16.027344 67.761719 16.460938 68.4375 16.722656 69.238281 C 17.03125 69.246094 17.347656 69.289062 17.621094 69.367188 Z M 29.328125 88.140625 C 27.976562 87.316406 26.929688 87.929688 26.351562 88.632812 C 26.109375 88.925781 25.382812 88.554688 25.609375 87.539062 C 24.707031 88.675781 25.519531 89.277344 25.996094 89.238281 C 25.441406 89.679688 25.320312 90.816406 26.117188 91.105469 C 25.804688 90.71875 25.914062 89.996094 26.371094 89.738281 C 26.335938 90.3125 27.117188 90.78125 27.785156 90.644531 C 28.238281 90.550781 28.546875 90.058594 28.527344 89.625 C 28.503906 89.125 28.050781 88.871094 27.707031 88.9375 C 27.351562 89.003906 27.15625 89.445312 27.28125 89.734375 C 27.449219 89.421875 27.738281 89.308594 27.890625 89.484375 C 28.109375 89.742188 27.910156 89.984375 27.625 90.011719 C 27.042969 90.0625 26.652344 89.351562 27.039062 88.855469 C 27.347656 88.496094 27.902344 87.816406 29.328125 88.140625 Z M 33.664062 93.671875 C 34.347656 94.296875 34.21875 95.648438 34.527344 96.566406 C 34.570312 96.703125 34.777344 96.710938 34.730469 96.488281 C 34.667969 96.164062 35.125 95.957031 35.308594 96.324219 C 35.425781 96.5625 35.199219 96.878906 35.074219 96.980469 C 34.882812 97.132812 34.589844 97.054688 34.449219 96.988281 C 33.757812 96.65625 33.917969 94.871094 33.058594 95.480469 C 33.433594 96.507812 32.050781 96.988281 31.523438 97.695312 C 31.621094 96.820312 30.949219 95.519531 31.921875 95.03125 C 31.714844 94 30.609375 95.40625 29.878906 95.171875 C 29.730469 95.128906 29.464844 94.984375 29.429688 94.738281 C 29.40625 94.578125 29.460938 94.191406 29.710938 94.101562 C 30.09375 93.957031 30.285156 94.425781 30.015625 94.617188 C 29.828125 94.75 29.984375 94.882812 30.113281 94.8125 C 30.960938 94.355469 31.796875 93.285156 32.722656 93.296875 C 32.832031 93.050781 33.121094 92.933594 33.375 93.035156 C 33.625 93.132812 33.753906 93.417969 33.664062 93.671875 Z M 35.53125 86.742188 C 35.785156 87.511719 35.585938 88.136719 34.894531 88.558594 C 33.964844 89.121094 32.777344 88.242188 32.28125 87.492188 C 31.820312 86.796875 31.507812 85.886719 31.515625 84.996094 C 31.726562 84.992188 32.015625 85.0625 32.242188 85.09375 C 32.328125 85.792969 32.605469 86.652344 32.878906 87.046875 C 33.144531 87.421875 33.957031 88.261719 34.507812 87.929688 C 34.789062 87.757812 34.890625 87.570312 34.835938 87.253906 C 34.90625 87.125 35.457031 86.695312 35.53125 86.742188 Z M 29.339844 86.050781 C 29.78125 85.890625 30.261719 86.121094 30.433594 86.574219 C 30.617188 87.042969 30.429688 87.464844 30.09375 87.753906 C 29.65625 88.132812 28.976562 87.746094 28.722656 87.289062 C 28.445312 86.800781 28.382812 86.113281 28.65625 85.535156 C 29.703125 83.316406 33.390625 83.757812 34.855469 85.550781 C 34.890625 85.59375 34.902344 85.59375 34.933594 85.640625 C 34.605469 85.734375 34.414062 85.910156 34.253906 86.0625 C 33.328125 84.902344 29.800781 83.980469 29.339844 86.050781 Z M 33.601562 92.710938 C 33.941406 93.5 34.738281 94.355469 35.6875 94.699219 C 36.925781 95.148438 38.398438 95.015625 38.824219 93.59375 C 38.976562 93.082031 38.769531 92.535156 38.246094 92.296875 C 37.316406 91.875 36 92.832031 36.3125 93.886719 C 35.460938 93.652344 34.871094 93.109375 34.492188 92.335938 C 34.308594 92.4375 33.816406 92.652344 33.601562 92.710938 Z M 33.082031 88.535156 C 32.890625 89.4375 32.890625 90.4375 33.148438 91.351562 C 33.414062 91.28125 33.757812 91.089844 34.03125 90.972656 C 33.933594 90.308594 33.933594 89.5 34.023438 88.882812 C 33.808594 88.925781 33.289062 88.796875 33.082031 88.535156 Z M 37.332031 86.5 C 37.097656 86.105469 36.714844 85.8125 36.183594 85.664062 C 34.957031 85.316406 33.914062 86.359375 33.433594 87.417969 C 33.625 87.707031 34 87.878906 34.332031 87.875 C 34.640625 87.238281 35.242188 86.402344 35.917969 86.59375 C 36.089844 86.644531 36.226562 86.726562 36.328125 86.832031 C 36.523438 86.726562 37.078125 86.527344 37.332031 86.5 Z M 30.019531 90.769531 C 30.640625 90.820312 31.164062 90.359375 31.230469 89.730469 C 31.296875 89.070312 30.910156 88.601562 30.386719 88.351562 C 29.699219 88.023438 28.976562 88.75 28.808594 89.417969 C 28.632812 90.132812 28.792969 91.027344 29.335938 91.664062 C 31.433594 94.105469 35.953125 92.261719 37.183594 89.484375 C 37.484375 88.808594 37.632812 88.164062 37.621094 87.601562 C 37.304688 87.664062 36.898438 87.746094 36.542969 88.03125 C 36.496094 88.324219 36.398438 88.644531 36.269531 88.984375 C 35.574219 90.777344 31.34375 93.265625 30.019531 90.769531 Z M 40.503906 87.332031 C 39.632812 86.789062 38.578125 86.507812 37.644531 86.640625 C 36.136719 86.851562 35.246094 87.675781 35.578125 88.824219 C 35.644531 89.0625 35.726562 89.234375 35.894531 89.386719 C 36 89.316406 36.199219 88.898438 36.273438 88.699219 C 36.257812 88.667969 36.296875 88.65625 36.285156 88.625 C 36.058594 87.839844 37.132812 87.539062 37.6875 87.433594 C 38.242188 87.328125 39.027344 87.5 39.777344 87.878906 C 40 87.664062 40.253906 87.472656 40.503906 87.332031 Z M 16.621094 77.070312 C 15.691406 75.792969 14.488281 75.957031 13.6875 76.382812 C 13.347656 76.5625 12.820312 75.941406 13.417969 75.085938 C 12.152344 75.792969 12.671875 76.660156 13.125 76.804688 C 12.441406 77 11.898438 78.003906 12.519531 78.574219 C 12.382812 78.097656 12.757812 77.476562 13.28125 77.414062 C 13.027344 77.925781 13.566406 78.660156 14.238281 78.789062 C 14.691406 78.878906 15.164062 78.539062 15.3125 78.132812 C 15.484375 77.664062 15.164062 77.257812 14.824219 77.183594 C 14.46875 77.109375 14.117188 77.441406 14.121094 77.757812 C 14.394531 77.535156 14.707031 77.539062 14.78125 77.757812 C 14.886719 78.082031 14.605469 78.230469 14.332031 78.144531 C 13.773438 77.96875 13.6875 77.160156 14.234375 76.851562 C 14.660156 76.636719 15.429688 76.222656 16.621094 77.070312 Z M 18.507812 83.839844 C 18.898438 84.683594 18.261719 85.882812 18.195312 86.84375 C 18.183594 86.988281 18.367188 87.074219 18.414062 86.851562 C 18.476562 86.527344 18.980469 86.511719 19.007812 86.917969 C 19.027344 87.183594 18.695312 87.390625 18.539062 87.4375 C 18.304688 87.503906 18.0625 87.320312 17.960938 87.207031 C 17.449219 86.632812 18.28125 85.046875 17.253906 85.28125 C 17.207031 86.371094 15.746094 86.289062 14.984375 86.734375 C 15.414062 85.964844 15.289062 84.507812 16.378906 84.429688 C 16.582031 83.398438 15.019531 84.273438 14.433594 83.777344 C 14.316406 83.675781 14.125 83.441406 14.183594 83.203125 C 14.226562 83.046875 14.425781 82.710938 14.691406 82.722656 C 15.097656 82.734375 15.097656 83.242188 14.773438 83.3125 C 14.554688 83.363281 14.644531 83.546875 14.789062 83.535156 C 15.75 83.4375 16.929688 82.769531 17.78125 83.136719 C 17.976562 82.949219 18.285156 82.949219 18.484375 83.140625 C 18.675781 83.332031 18.6875 83.640625 18.507812 83.839844 Z M 19.894531 73.851562 C 20.210938 73.976562 20.472656 74.074219 20.773438 74.25 C 20.578125 72.378906 19.566406 70.40625 17.792969 69.554688 C 16.652344 69.007812 15.109375 69.773438 14.160156 68.507812 L 13.429688 68.785156 C 14.894531 70.867188 16.550781 69.601562 17.851562 70.554688 C 19.113281 71.476562 19.496094 72.394531 19.894531 73.851562 Z M 23.726562 81.140625 L 23.15625 81.675781 C 25.304688 83.039062 26.351562 81.238281 27.917969 81.621094 C 29.375 81.976562 30.226562 82.773438 31.113281 83.914062 C 31.457031 83.910156 31.734375 83.898438 32.082031 83.945312 C 31.210938 82.347656 29.382812 80.824219 27.484375 80.71875 C 26.222656 80.648438 25.085938 81.945312 23.726562 81.140625 Z M 22.886719 78.160156 C 22.828125 78.964844 22.402344 79.46875 21.601562 79.589844 C 20.53125 79.753906 19.769531 78.488281 19.597656 77.605469 C 19.441406 76.785156 19.503906 75.824219 19.851562 75.003906 C 20.042969 75.082031 20.285156 75.257812 20.480469 75.375 C 20.292969 76.050781 20.21875 76.953125 20.324219 77.421875 C 20.421875 77.871094 20.851562 78.957031 21.488281 78.863281 C 21.8125 78.8125 21.980469 78.675781 22.050781 78.359375 C 22.164062 78.273438 22.835938 78.085938 22.886719 78.160156 Z M 17.433594 75.144531 C 17.90625 75.164062 18.257812 75.5625 18.246094 76.046875 C 18.234375 76.550781 17.898438 76.867188 17.480469 77.007812 C 16.929688 77.191406 16.449219 76.570312 16.390625 76.054688 C 16.324219 75.496094 16.53125 74.835938 17.003906 74.40625 C 18.820312 72.757812 22.054688 74.582031 22.722656 76.796875 C 22.738281 76.851562 22.746094 76.855469 22.761719 76.910156 C 22.421875 76.871094 22.175781 76.960938 21.96875 77.039062 C 21.558594 75.613281 18.65625 73.40625 17.433594 75.144531 Z M 18.816406 82.929688 C 18.832031 83.789062 19.234375 84.882812 19.980469 85.566406 C 20.953125 86.457031 22.363281 86.898438 23.300781 85.746094 C 23.640625 85.332031 23.65625 84.75 23.265625 84.328125 C 22.570312 83.582031 20.988281 83.960938 20.871094 85.054688 C 20.175781 84.515625 19.835938 83.785156 19.78125 82.921875 C 19.574219 82.949219 19.039062 82.957031 18.816406 82.929688 Z M 19.9375 78.875 C 19.417969 79.632812 19.03125 80.558594 18.917969 81.5 C 19.191406 81.535156 19.582031 81.492188 19.882812 81.488281 C 20.046875 80.839844 20.355469 80.09375 20.675781 79.554688 C 20.460938 79.515625 20.03125 79.195312 19.9375 78.875 Z M 24.644531 78.625 C 24.578125 78.171875 24.339844 77.753906 23.90625 77.410156 C 22.90625 76.621094 21.542969 77.183594 20.695312 77.976562 C 20.757812 78.316406 21.039062 78.617188 21.347656 78.742188 C 21.875 78.273438 22.75 77.730469 23.300781 78.167969 C 23.441406 78.28125 23.535156 78.410156 23.589844 78.546875 C 23.8125 78.519531 24.398438 78.554688 24.644531 78.625 Z M 16.253906 79.765625 C 16.808594 80.050781 17.46875 79.824219 17.769531 79.265625 C 18.085938 78.6875 17.910156 78.101562 17.519531 77.671875 C 17.011719 77.105469 16.0625 77.5 15.65625 78.050781 C 15.214844 78.640625 15.023438 79.53125 15.28125 80.324219 C 16.28125 83.386719 21.160156 83.417969 23.363281 81.324219 C 23.902344 80.8125 24.285156 80.277344 24.492188 79.753906 C 24.171875 79.6875 23.765625 79.609375 23.328125 79.734375 C 23.171875 79.984375 22.960938 80.25 22.710938 80.511719 C 21.378906 81.902344 16.519531 82.574219 16.253906 79.765625 Z M 27.253906 80.609375 C 26.65625 79.773438 25.792969 79.109375 24.878906 78.871094 C 23.40625 78.492188 22.265625 78.90625 22.132812 80.097656 C 22.105469 80.34375 22.113281 80.535156 22.210938 80.738281 C 22.332031 80.714844 22.679688 80.40625 22.820312 80.25 C 22.820312 80.214844 22.859375 80.21875 22.863281 80.183594 C 22.953125 79.375 24.0625 79.507812 24.613281 79.621094 C 25.167969 79.734375 25.824219 80.195312 26.375 80.835938 C 26.664062 80.722656 26.972656 80.640625 27.253906 80.609375 Z M 26.734375 84.089844 C 26.695312 83.621094 26.285156 83.285156 25.804688 83.3125 C 25.300781 83.34375 24.996094 83.691406 24.871094 84.117188 C 24.710938 84.675781 25.351562 85.128906 25.871094 85.171875 C 26.429688 85.214844 27.082031 84.980469 27.492188 84.492188 C 28.15625 83.699219 28.191406 82.675781 27.84375 81.714844 C 27.539062 81.640625 27.238281 81.691406 27.007812 81.75 C 27.441406 82.597656 27.507812 83.503906 26.734375 84.089844 Z M 41.359375 90.746094 C 41.144531 90.328125 40.636719 90.171875 40.199219 90.386719 C 39.75 90.605469 39.601562 91.046875 39.648438 91.484375 C 39.714844 92.0625 40.476562 92.238281 40.972656 92.074219 C 41.507812 91.902344 42.019531 91.4375 42.210938 90.828125 C 42.523438 89.839844 42.164062 88.882812 41.472656 88.128906 C 41.160156 88.175781 40.902344 88.335938 40.714844 88.480469 C 41.4375 89.09375 41.847656 89.910156 41.359375 90.746094 Z M 15.8125 72.386719 C 15.957031 71.933594 15.707031 71.46875 15.25 71.3125 C 14.773438 71.148438 14.355469 71.351562 14.082031 71.699219 C 13.71875 72.152344 14.136719 72.816406 14.601562 73.050781 C 15.101562 73.308594 15.792969 73.339844 16.355469 73.046875 C 17.277344 72.566406 17.699219 71.636719 17.746094 70.613281 C 17.488281 70.429688 17.195312 70.359375 16.957031 70.328125 C 17.035156 71.273438 16.75 72.136719 15.8125 72.386719 Z M 45.292969 93.492188 C 43.730469 93.246094 42.996094 94.214844 42.730469 95.085938 C 42.621094 95.453125 41.8125 95.386719 41.625 94.359375 C 41.230469 95.757812 42.210938 96 42.636719 95.78125 C 42.292969 96.402344 42.617188 97.496094 43.464844 97.460938 C 43.027344 97.222656 42.851562 96.515625 43.175781 96.101562 C 43.359375 96.644531 44.261719 96.777344 44.828125 96.394531 C 45.210938 96.136719 45.304688 95.5625 45.121094 95.167969 C 44.910156 94.714844 44.394531 94.65625 44.101562 94.847656 C 43.796875 95.046875 43.785156 95.527344 44.011719 95.746094 C 44.046875 95.394531 44.273438 95.179688 44.480469 95.28125 C 44.785156 95.4375 44.691406 95.738281 44.4375 95.871094 C 43.917969 96.140625 43.285156 95.632812 43.453125 95.027344 C 43.601562 94.578125 43.851562 93.738281 45.292969 93.492188 Z M 51.417969 96.9375 C 52.289062 97.253906 52.6875 98.554688 53.320312 99.28125 C 53.417969 99.390625 53.609375 99.320312 53.484375 99.132812 C 53.296875 98.855469 53.644531 98.488281 53.953125 98.757812 C 54.152344 98.933594 54.066406 99.3125 53.988281 99.453125 C 53.867188 99.667969 53.566406 99.710938 53.414062 99.703125 C 52.648438 99.660156 52.113281 97.953125 51.554688 98.839844 C 52.289062 99.644531 51.199219 100.621094 50.980469 101.476562 C 50.738281 100.628906 49.617188 99.6875 50.328125 98.859375 C 49.742188 97.988281 49.261719 99.710938 48.496094 99.777344 C 48.34375 99.789062 48.039062 99.757812 47.914062 99.546875 C 47.832031 99.40625 47.734375 99.03125 47.929688 98.847656 C 48.230469 98.570312 48.585938 98.929688 48.410156 99.210938 C 48.289062 99.402344 48.484375 99.464844 48.574219 99.355469 C 49.183594 98.605469 49.542969 97.296875 50.40625 96.953125 C 50.414062 96.683594 50.632812 96.464844 50.90625 96.460938 C 51.175781 96.457031 51.402344 96.667969 51.417969 96.9375 Z M 45.324219 88.902344 C 45.636719 88.765625 45.890625 88.648438 46.230469 88.5625 C 44.726562 87.347656 42.671875 86.671875 40.757812 87.34375 C 39.5625 87.765625 39.015625 89.398438 37.449219 89.171875 L 37.125 89.886719 C 39.636719 90.324219 39.910156 88.257812 41.503906 88.011719 C 43.152344 87.757812 43.945312 88.117188 45.324219 88.902344 Z M 50.488281 89.824219 C 51.015625 90.433594 51.074219 91.089844 50.59375 91.742188 C 49.953125 92.617188 48.519531 92.265625 47.773438 91.761719 C 47.082031 91.292969 46.445312 90.574219 46.109375 89.746094 C 46.300781 89.667969 46.597656 89.617188 46.816406 89.5625 C 47.164062 90.171875 47.75 90.859375 48.15625 91.121094 C 48.542969 91.367188 49.617188 91.832031 49.996094 91.308594 C 50.191406 91.046875 50.210938 90.832031 50.039062 90.558594 C 50.058594 90.417969 50.402344 89.808594 50.488281 89.824219 Z M 44.503906 91.558594 C 44.851562 91.238281 45.378906 91.269531 45.714844 91.617188 C 46.0625 91.980469 46.050781 92.445312 45.855469 92.839844 C 45.59375 93.359375 44.816406 93.261719 44.40625 92.9375 C 43.964844 92.589844 43.644531 91.980469 43.675781 91.34375 C 43.789062 88.894531 47.367188 87.886719 49.40625 88.980469 C 49.457031 89.007812 49.464844 89.003906 49.515625 89.03125 C 49.246094 89.246094 49.136719 89.480469 49.046875 89.683594 C 47.746094 88.96875 44.132812 89.464844 44.503906 91.558594 Z M 50.992188 96.074219 C 51.609375 96.671875 52.671875 97.160156 53.679688 97.113281 C 54.996094 97.050781 56.304688 96.367188 56.152344 94.886719 C 56.097656 94.355469 55.699219 93.933594 55.125 93.914062 C 54.105469 93.878906 53.253906 95.265625 53.945312 96.121094 C 53.074219 96.234375 52.316406 95.957031 51.667969 95.386719 C 51.539062 95.550781 51.167969 95.9375 50.992188 96.074219 Z M 48.910156 92.414062 C 49.082031 93.320312 49.464844 94.25 50.050781 94.992188 C 50.269531 94.824219 50.515625 94.519531 50.722656 94.304688 C 50.378906 93.730469 50.070312 92.984375 49.914062 92.375 C 49.734375 92.5 49.203125 92.578125 48.910156 92.414062 Z M 52.058594 88.90625 C 51.691406 88.632812 51.226562 88.511719 50.675781 88.578125 C 49.410156 88.722656 48.847656 90.089844 48.808594 91.25 C 49.097656 91.441406 49.507812 91.457031 49.8125 91.328125 C 49.855469 90.621094 50.089844 89.621094 50.785156 89.539062 C 50.964844 89.515625 51.121094 89.539062 51.257812 89.601562 C 51.394531 89.425781 51.832031 89.035156 52.058594 88.90625 Z M 46.941406 95.65625 C 47.535156 95.464844 47.839844 94.839844 47.660156 94.230469 C 47.46875 93.597656 46.933594 93.308594 46.351562 93.277344 C 45.59375 93.238281 45.203125 94.191406 45.304688 94.867188 C 45.414062 95.597656 45.90625 96.363281 46.652344 96.738281 C 49.523438 98.195312 52.992188 94.761719 53.066406 91.722656 C 53.082031 90.980469 52.972656 90.332031 52.746094 89.816406 C 52.480469 89.992188 52.136719 90.226562 51.914062 90.625 C 51.984375 90.914062 52.019531 91.246094 52.027344 91.609375 C 52.074219 93.535156 49.117188 97.453125 46.941406 95.65625 Z M 55.304688 88.460938 C 54.292969 88.296875 53.210938 88.4375 52.398438 88.917969 C 51.089844 89.691406 50.578125 90.792969 51.328125 91.730469 C 51.480469 91.921875 51.625 92.050781 51.835938 92.125 C 51.90625 92.023438 51.929688 91.558594 51.921875 91.347656 C 51.894531 91.324219 51.925781 91.296875 51.90625 91.269531 C 51.394531 90.632812 52.269531 89.945312 52.742188 89.632812 C 53.214844 89.324219 54.003906 89.183594 54.84375 89.246094 C 54.96875 88.960938 55.128906 88.683594 55.304688 88.460938 Z M 62.035156 92.332031 C 60.496094 92.703125 60.1875 93.878906 60.277344 94.78125 C 60.3125 95.164062 59.539062 95.414062 58.976562 94.535156 C 59.148438 95.976562 60.144531 95.828125 60.453125 95.460938 C 60.371094 96.167969 61.089844 97.054688 61.859375 96.699219 C 61.363281 96.644531 60.933594 96.054688 61.074219 95.550781 C 61.449219 95.980469 62.335938 95.761719 62.710938 95.195312 C 62.96875 94.804688 62.835938 94.242188 62.515625 93.945312 C 62.148438 93.609375 61.648438 93.75 61.449219 94.039062 C 61.246094 94.335938 61.417969 94.789062 61.710938 94.90625 C 61.613281 94.566406 61.734375 94.28125 61.964844 94.296875 C 62.304688 94.324219 62.335938 94.640625 62.152344 94.859375 C 61.777344 95.304688 60.996094 95.078125 60.917969 94.453125 C 60.886719 93.980469 60.796875 93.109375 62.035156 92.332031 Z M 69.011719 93.175781 C 69.9375 93.136719 70.800781 94.183594 71.664062 94.613281 C 71.796875 94.679688 71.945312 94.539062 71.757812 94.414062 C 71.480469 94.230469 71.660156 93.757812 72.046875 93.890625 C 72.296875 93.976562 72.367188 94.359375 72.347656 94.523438 C 72.320312 94.765625 72.058594 94.917969 71.910156 94.96875 C 71.1875 95.222656 70.039062 93.847656 69.863281 94.882812 C 70.851562 95.347656 70.214844 96.664062 70.339844 97.535156 C 69.792969 96.847656 68.398438 96.40625 68.738281 95.371094 C 67.863281 94.785156 68.078125 96.5625 67.394531 96.917969 C 67.257812 96.988281 66.96875 97.074219 66.769531 96.925781 C 66.640625 96.828125 66.40625 96.519531 66.515625 96.277344 C 66.6875 95.902344 67.152344 96.097656 67.097656 96.425781 C 67.058594 96.648438 67.265625 96.632812 67.304688 96.496094 C 67.585938 95.570312 67.417969 94.226562 68.082031 93.578125 C 67.984375 93.328125 68.105469 93.039062 68.355469 92.933594 C 68.605469 92.824219 68.894531 92.933594 69.011719 93.175781 Z M 60.308594 88.078125 C 60.546875 87.832031 60.738281 87.628906 61.015625 87.417969 C 59.289062 86.90625 56.957031 87.109375 55.546875 88.375 C 54.605469 89.222656 54.722656 90.941406 53.191406 91.332031 L 53.164062 92.117188 C 55.648438 91.558594 55.113281 89.542969 56.492188 88.707031 C 57.753906 87.9375 58.890625 87.902344 60.308594 88.078125 Z M 65.433594 86.957031 C 66.15625 87.320312 66.457031 87.90625 66.265625 88.691406 C 66.007812 89.746094 64.546875 89.964844 63.664062 89.785156 C 62.847656 89.617188 61.984375 89.195312 61.359375 88.558594 C 61.503906 88.410156 61.761719 88.253906 61.941406 88.117188 C 62.496094 88.550781 63.300781 88.960938 63.773438 89.046875 C 64.226562 89.125 65.394531 89.144531 65.550781 88.519531 C 65.628906 88.199219 65.566406 87.996094 65.300781 87.808594 C 65.261719 87.671875 65.347656 86.976562 65.433594 86.957031 Z M 60.566406 90.847656 C 60.765625 90.417969 61.265625 90.246094 61.707031 90.4375 C 62.167969 90.640625 62.335938 91.074219 62.304688 91.515625 C 62.261719 92.09375 61.507812 92.300781 61.003906 92.15625 C 60.464844 92.007812 59.933594 91.5625 59.71875 90.960938 C 58.890625 88.65625 61.8125 86.359375 64.113281 86.589844 C 64.171875 86.597656 64.175781 86.589844 64.230469 86.597656 C 64.066406 86.898438 64.054688 87.15625 64.046875 87.378906 C 62.574219 87.214844 59.425781 89.054688 60.566406 90.847656 Z M 68.285156 92.539062 C 69.085938 92.859375 70.253906 92.902344 71.167969 92.476562 C 72.363281 91.914062 73.308594 90.78125 72.605469 89.472656 C 72.351562 89.003906 71.816406 88.765625 71.28125 88.964844 C 70.324219 89.324219 70.070312 90.929688 71.035156 91.453125 C 70.269531 91.894531 69.46875 91.925781 68.648438 91.648438 C 68.59375 91.847656 68.398438 92.347656 68.285156 92.539062 Z M 64.96875 89.953125 C 65.46875 90.726562 66.175781 91.4375 67.003906 91.902344 C 67.144531 91.664062 67.253906 91.285156 67.363281 91.007812 C 66.824219 90.609375 66.253906 90.039062 65.878906 89.535156 C 65.757812 89.71875 65.300781 89.996094 64.96875 89.953125 Z M 66.535156 85.511719 C 66.089844 85.398438 65.617188 85.464844 65.132812 85.730469 C 64.019531 86.351562 64.019531 87.828125 64.425781 88.914062 C 64.765625 88.984375 65.152344 88.839844 65.382812 88.605469 C 65.152344 87.9375 64.988281 86.921875 65.601562 86.578125 C 65.757812 86.492188 65.910156 86.453125 66.0625 86.457031 C 66.121094 86.242188 66.375 85.714844 66.535156 85.511719 Z M 64.382812 93.699219 C 64.859375 93.300781 64.902344 92.601562 64.503906 92.109375 C 64.085938 91.597656 63.480469 91.539062 62.933594 91.730469 C 62.214844 91.984375 62.214844 93.011719 62.570312 93.601562 C 62.949219 94.230469 63.695312 94.75 64.53125 94.816406 C 67.742188 95.0625 69.632812 90.5625 68.542969 87.730469 C 68.273438 87.035156 67.925781 86.476562 67.519531 86.085938 C 67.339844 86.355469 67.109375 86.699219 67.058594 87.152344 C 67.230469 87.394531 67.390625 87.6875 67.539062 88.019531 C 68.316406 89.78125 67.082031 94.53125 64.382812 93.699219 Z M 69.367188 83.859375 C 68.367188 84.089844 67.421875 84.636719 66.851562 85.390625 C 65.9375 86.605469 65.890625 87.820312 66.9375 88.398438 C 67.152344 88.515625 67.332031 88.582031 67.558594 88.570312 C 67.585938 88.449219 67.429688 88.011719 67.339844 87.816406 C 67.308594 87.808594 67.328125 87.769531 67.296875 87.753906 C 66.582031 87.359375 67.128906 86.386719 67.445312 85.921875 C 67.761719 85.453125 68.441406 85.019531 69.242188 84.757812 C 69.246094 84.449219 69.289062 84.132812 69.367188 83.859375 Z M 88.140625 72.152344 C 87.316406 73.503906 87.929688 74.550781 88.632812 75.128906 C 88.925781 75.371094 88.554688 76.097656 87.539062 75.871094 C 88.679688 76.773438 89.277344 75.960938 89.238281 75.484375 C 89.679688 76.039062 90.816406 76.160156 91.105469 75.363281 C 90.71875 75.675781 89.996094 75.566406 89.742188 75.109375 C 90.3125 75.148438 90.78125 74.363281 90.644531 73.695312 C 90.550781 73.242188 90.058594 72.9375 89.625 72.953125 C 89.125 72.976562 88.871094 73.429688 88.9375 73.773438 C 89.003906 74.128906 89.445312 74.328125 89.734375 74.203125 C 89.421875 74.03125 89.308594 73.742188 89.484375 73.589844 C 89.742188 73.371094 89.988281 73.570312 90.011719 73.855469 C 90.0625 74.4375 89.351562 74.828125 88.855469 74.441406 C 88.496094 74.132812 87.816406 73.578125 88.140625 72.152344 Z M 93.671875 67.816406 C 94.296875 67.132812 95.648438 67.261719 96.566406 66.953125 C 96.703125 66.910156 96.710938 66.703125 96.488281 66.75 C 96.164062 66.8125 95.957031 66.355469 96.324219 66.171875 C 96.5625 66.054688 96.878906 66.28125 96.980469 66.40625 C 97.132812 66.597656 97.054688 66.890625 96.988281 67.03125 C 96.65625 67.722656 94.871094 67.5625 95.480469 68.421875 C 96.507812 68.046875 96.992188 69.429688 97.695312 69.957031 C 96.820312 69.859375 95.523438 70.53125 95.03125 69.558594 C 94 69.765625 95.40625 70.871094 95.175781 71.605469 C 95.128906 71.75 94.984375 72.015625 94.738281 72.050781 C 94.578125 72.074219 94.195312 72.019531 94.101562 71.769531 C 93.957031 71.386719 94.425781 71.195312 94.617188 71.464844 C 94.75 71.652344 94.882812 71.496094 94.8125 71.367188 C 94.355469 70.519531 93.285156 69.683594 93.296875 68.757812 C 93.050781 68.648438 92.933594 68.359375 93.035156 68.109375 C 93.136719 67.855469 93.417969 67.726562 93.671875 67.816406 Z M 86.742188 65.949219 C 87.511719 65.695312 88.136719 65.894531 88.558594 66.585938 C 89.121094 67.515625 88.242188 68.703125 87.492188 69.199219 C 86.796875 69.660156 85.886719 69.972656 84.996094 69.964844 C 84.992188 69.753906 85.0625 69.464844 85.09375 69.238281 C 85.792969 69.152344 86.652344 68.875 87.046875 68.601562 C 87.421875 68.335938 88.265625 67.523438 87.929688 66.972656 C 87.757812 66.691406 87.570312 66.589844 87.253906 66.644531 C 87.125 66.574219 86.695312 66.023438 86.742188 65.949219 Z M 86.050781 72.144531 C 85.890625 71.699219 86.121094 71.222656 86.574219 71.046875 C 87.042969 70.863281 87.464844 71.050781 87.753906 71.386719 C 88.132812 71.824219 87.746094 72.503906 87.289062 72.757812 C 86.800781 73.035156 86.113281 73.097656 85.535156 72.824219 C 83.316406 71.777344 83.761719 68.089844 85.550781 66.625 C 85.59375 66.589844 85.59375 66.578125 85.640625 66.546875 C 85.734375 66.875 85.910156 67.066406 86.0625 67.226562 C 84.902344 68.152344 83.980469 71.679688 86.050781 72.144531 Z M 92.710938 67.878906 C 93.5 67.539062 94.355469 66.742188 94.699219 65.796875 C 95.148438 64.554688 95.015625 63.082031 93.59375 62.65625 C 93.078125 62.503906 92.535156 62.710938 92.296875 63.234375 C 91.875 64.164062 92.832031 65.480469 93.886719 65.167969 C 93.652344 66.019531 93.109375 66.609375 92.335938 66.988281 C 92.4375 67.171875 92.652344 67.664062 92.710938 67.878906 Z M 88.535156 68.398438 C 89.4375 68.589844 90.4375 68.589844 91.351562 68.332031 C 91.28125 68.066406 91.089844 67.722656 90.972656 67.449219 C 90.308594 67.546875 89.5 67.546875 88.882812 67.457031 C 88.925781 67.671875 88.796875 68.191406 88.535156 68.398438 Z M 86.5 64.148438 C 86.105469 64.382812 85.816406 64.765625 85.664062 65.296875 C 85.316406 66.523438 86.359375 67.566406 87.417969 68.046875 C 87.707031 67.855469 87.878906 67.480469 87.875 67.148438 C 87.238281 66.839844 86.402344 66.238281 86.59375 65.5625 C 86.644531 65.390625 86.726562 65.253906 86.835938 65.152344 C 86.726562 64.957031 86.527344 64.402344 86.5 64.148438 Z M 90.769531 71.460938 C 90.820312 70.839844 90.359375 70.316406 89.730469 70.25 C 89.070312 70.183594 88.601562 70.570312 88.351562 71.09375 C 88.023438 71.78125 88.75 72.503906 89.417969 72.671875 C 90.132812 72.847656 91.027344 72.6875 91.664062 72.144531 C 94.109375 70.046875 92.265625 65.527344 89.488281 64.296875 C 88.808594 63.996094 88.164062 63.847656 87.601562 63.859375 C 87.664062 64.175781 87.746094 64.582031 88.03125 64.9375 C 88.324219 64.984375 88.644531 65.082031 88.984375 65.210938 C 90.777344 65.90625 93.265625 70.136719 90.769531 71.460938 Z M 87.332031 60.976562 C 86.789062 61.847656 86.507812 62.902344 86.640625 63.839844 C 86.851562 65.34375 87.675781 66.238281 88.824219 65.90625 C 89.0625 65.835938 89.234375 65.753906 89.386719 65.585938 C 89.316406 65.480469 88.898438 65.28125 88.699219 65.210938 C 88.667969 65.226562 88.65625 65.183594 88.625 65.195312 C 87.839844 65.421875 87.539062 64.347656 87.433594 63.792969 C 87.328125 63.242188 87.5 62.453125 87.878906 61.703125 C 87.664062 61.480469 87.472656 61.226562 87.332031 60.976562 Z M 77.070312 84.859375 C 75.792969 85.789062 75.957031 86.992188 76.382812 87.792969 C 76.5625 88.132812 75.941406 88.660156 75.085938 88.0625 C 75.796875 89.328125 76.660156 88.8125 76.804688 88.355469 C 77.003906 89.039062 78.007812 89.585938 78.578125 88.960938 C 78.101562 89.097656 77.476562 88.722656 77.414062 88.199219 C 77.925781 88.453125 78.660156 87.914062 78.792969 87.246094 C 78.878906 86.789062 78.542969 86.316406 78.132812 86.167969 C 77.664062 85.996094 77.257812 86.316406 77.183594 86.660156 C 77.109375 87.015625 77.441406 87.363281 77.757812 87.359375 C 77.535156 87.085938 77.539062 86.773438 77.757812 86.699219 C 78.082031 86.597656 78.230469 86.875 78.144531 87.148438 C 77.96875 87.707031 77.160156 87.792969 76.851562 87.246094 C 76.640625 86.824219 76.226562 86.050781 77.070312 84.859375 Z M 83.84375 82.972656 C 84.683594 82.582031 85.882812 83.21875 86.84375 83.289062 C 86.988281 83.296875 87.074219 83.113281 86.855469 83.070312 C 86.527344 83.003906 86.511719 82.5 86.917969 82.472656 C 87.183594 82.457031 87.394531 82.785156 87.4375 82.941406 C 87.503906 83.175781 87.320312 83.417969 87.207031 83.519531 C 86.632812 84.03125 85.046875 83.199219 85.28125 84.226562 C 86.371094 84.277344 86.289062 85.734375 86.738281 86.496094 C 85.964844 86.066406 84.507812 86.191406 84.429688 85.105469 C 83.398438 84.898438 84.273438 86.460938 83.777344 87.046875 C 83.679688 87.164062 83.441406 87.355469 83.203125 87.296875 C 83.046875 87.253906 82.710938 87.054688 82.722656 86.789062 C 82.738281 86.382812 83.242188 86.382812 83.316406 86.707031 C 83.367188 86.929688 83.546875 86.835938 83.535156 86.691406 C 83.4375 85.730469 82.769531 84.550781 83.136719 83.699219 C 82.949219 83.503906 82.953125 83.195312 83.140625 83 C 83.332031 82.804688 83.640625 82.792969 83.84375 82.972656 Z M 73.851562 81.585938 C 73.980469 81.269531 74.074219 81.007812 74.253906 80.707031 C 72.378906 80.902344 70.40625 81.917969 69.554688 83.6875 C 69.007812 84.828125 69.773438 86.371094 68.507812 87.320312 L 68.785156 88.054688 C 70.867188 86.585938 69.601562 84.933594 70.554688 83.632812 C 71.476562 82.371094 72.394531 81.988281 73.851562 81.585938 Z M 81.140625 77.753906 L 81.675781 78.324219 C 83.039062 76.175781 81.238281 75.128906 81.621094 73.5625 C 81.976562 72.105469 82.773438 71.253906 83.914062 70.367188 C 83.910156 70.023438 83.898438 69.746094 83.945312 69.398438 C 82.347656 70.269531 80.824219 72.097656 80.71875 73.996094 C 80.648438 75.261719 81.949219 76.394531 81.140625 77.753906 Z M 78.160156 78.59375 C 78.964844 78.652344 79.46875 79.078125 79.589844 79.878906 C 79.753906 80.949219 78.488281 81.710938 77.605469 81.882812 C 76.785156 82.042969 75.824219 81.980469 75.003906 81.628906 C 75.085938 81.4375 75.261719 81.195312 75.375 81 C 76.050781 81.1875 76.953125 81.261719 77.421875 81.15625 C 77.871094 81.058594 78.960938 80.628906 78.863281 79.992188 C 78.8125 79.667969 78.675781 79.503906 78.359375 79.429688 C 78.273438 79.316406 78.085938 78.644531 78.160156 78.59375 Z M 75.144531 84.046875 C 75.167969 83.574219 75.5625 83.222656 76.046875 83.234375 C 76.550781 83.246094 76.867188 83.582031 77.007812 84 C 77.191406 84.550781 76.570312 85.03125 76.054688 85.089844 C 75.496094 85.160156 74.835938 84.953125 74.40625 84.480469 C 72.757812 82.664062 74.582031 79.425781 76.796875 78.761719 C 76.851562 78.742188 76.855469 78.734375 76.910156 78.71875 C 76.871094 79.0625 76.960938 79.304688 77.039062 79.511719 C 75.613281 79.921875 73.40625 82.828125 75.144531 84.046875 Z M 82.929688 82.664062 C 83.789062 82.652344 84.886719 82.246094 85.566406 81.5 C 86.457031 80.527344 86.898438 79.117188 85.746094 78.179688 C 85.332031 77.839844 84.75 77.824219 84.328125 78.214844 C 83.582031 78.910156 83.960938 80.492188 85.054688 80.609375 C 84.515625 81.304688 83.785156 81.644531 82.921875 81.699219 C 82.949219 81.90625 82.957031 82.441406 82.929688 82.664062 Z M 78.875 81.542969 C 79.632812 82.0625 80.558594 82.449219 81.5 82.5625 C 81.535156 82.289062 81.492188 81.898438 81.488281 81.601562 C 80.839844 81.4375 80.09375 81.125 79.554688 80.804688 C 79.515625 81.019531 79.195312 81.449219 78.875 81.542969 Z M 78.625 76.835938 C 78.171875 76.902344 77.753906 77.144531 77.414062 77.578125 C 76.621094 78.574219 77.183594 79.941406 77.976562 80.785156 C 78.316406 80.722656 78.617188 80.441406 78.742188 80.132812 C 78.277344 79.605469 77.734375 78.730469 78.167969 78.179688 C 78.28125 78.039062 78.410156 77.945312 78.546875 77.890625 C 78.523438 77.667969 78.554688 77.082031 78.625 76.835938 Z M 79.765625 85.226562 C 80.050781 84.671875 79.824219 84.011719 79.265625 83.710938 C 78.6875 83.394531 78.101562 83.570312 77.671875 83.960938 C 77.105469 84.46875 77.5 85.417969 78.050781 85.824219 C 78.644531 86.265625 79.53125 86.457031 80.328125 86.199219 C 83.386719 85.199219 83.417969 80.320312 81.328125 78.117188 C 80.8125 77.578125 80.277344 77.195312 79.753906 76.992188 C 79.6875 77.308594 79.609375 77.714844 79.734375 78.152344 C 79.988281 78.308594 80.25 78.519531 80.511719 78.769531 C 81.902344 80.101562 82.578125 84.960938 79.765625 85.226562 Z M 80.609375 74.226562 C 79.773438 74.824219 79.109375 75.6875 78.871094 76.601562 C 78.492188 78.074219 78.910156 79.214844 80.097656 79.347656 C 80.34375 79.375 80.535156 79.367188 80.738281 79.269531 C 80.714844 79.148438 80.40625 78.804688 80.25 78.660156 C 80.214844 78.664062 80.222656 78.621094 80.183594 78.617188 C 79.375 78.527344 79.507812 77.421875 79.621094 76.867188 C 79.734375 76.316406 80.195312 75.65625 80.835938 75.109375 C 80.722656 74.820312 80.640625 74.507812 80.609375 74.226562 Z M 84.09375 74.746094 C 83.621094 74.785156 83.285156 75.195312 83.3125 75.675781 C 83.34375 76.179688 83.695312 76.484375 84.117188 76.609375 C 84.675781 76.769531 85.128906 76.132812 85.171875 75.613281 C 85.214844 75.050781 84.980469 74.398438 84.492188 73.988281 C 83.699219 73.324219 82.675781 73.289062 81.714844 73.636719 C 81.644531 73.941406 81.691406 74.242188 81.75 74.472656 C 82.597656 74.039062 83.503906 73.972656 84.09375 74.746094 Z M 90.746094 60.121094 C 90.328125 60.335938 90.171875 60.847656 90.386719 61.28125 C 90.605469 61.734375 91.046875 61.878906 91.484375 61.832031 C 92.0625 61.765625 92.238281 61.003906 92.074219 60.507812 C 91.902344 59.972656 91.4375 59.460938 90.828125 59.269531 C 89.839844 58.960938 88.882812 59.316406 88.125 60.007812 C 88.175781 60.320312 88.335938 60.578125 88.480469 60.769531 C 89.09375 60.042969 89.910156 59.632812 90.746094 60.121094 Z M 72.386719 85.667969 C 71.9375 85.523438 71.46875 85.777344 71.3125 86.234375 C 71.148438 86.710938 71.351562 87.125 71.699219 87.402344 C 72.152344 87.761719 72.816406 87.347656 73.054688 86.882812 C 73.308594 86.378906 73.34375 85.6875 73.046875 85.125 C 72.566406 84.207031 71.636719 83.78125 70.613281 83.738281 C 70.429688 83.992188 70.359375 84.285156 70.328125 84.523438 C 71.273438 84.445312 72.136719 84.730469 72.386719 85.667969 Z M 93.453125 56.496094 C 93.195312 58.054688 94.160156 58.796875 95.027344 59.066406 C 95.390625 59.179688 95.320312 59.992188 94.292969 60.167969 C 95.6875 60.570312 95.9375 59.59375 95.71875 59.167969 C 96.339844 59.515625 97.4375 59.199219 97.40625 58.351562 C 97.164062 58.785156 96.457031 58.957031 96.042969 58.628906 C 96.589844 58.453125 96.730469 57.550781 96.351562 56.980469 C 96.09375 56.59375 95.523438 56.5 95.125 56.679688 C 94.671875 56.886719 94.609375 57.398438 94.796875 57.695312 C 94.996094 58 95.476562 58.015625 95.699219 57.792969 C 95.347656 57.753906 95.128906 57.527344 95.234375 57.320312 C 95.394531 57.019531 95.695312 57.113281 95.824219 57.367188 C 96.089844 57.886719 95.578125 58.515625 94.972656 58.347656 C 94.523438 58.195312 93.6875 57.9375 93.453125 56.496094 Z M 96.941406 50.394531 C 97.265625 49.523438 98.566406 49.136719 99.296875 48.507812 C 99.40625 48.414062 99.339844 48.21875 99.148438 48.34375 C 98.871094 48.527344 98.507812 48.179688 98.777344 47.875 C 98.957031 47.675781 99.332031 47.761719 99.476562 47.84375 C 99.691406 47.960938 99.730469 48.265625 99.71875 48.417969 C 99.671875 49.183594 97.960938 49.707031 98.847656 50.273438 C 99.65625 49.542969 100.625 50.636719 101.476562 50.863281 C 100.625 51.101562 99.675781 52.214844 98.855469 51.496094 C 97.980469 52.078125 99.699219 52.570312 99.757812 53.335938 C 99.773438 53.492188 99.738281 53.792969 99.527344 53.917969 C 99.386719 53.996094 99.007812 54.09375 98.828125 53.894531 C 98.550781 53.59375 98.910156 53.242188 99.191406 53.417969 C 99.382812 53.542969 99.449219 53.347656 99.335938 53.253906 C 98.59375 52.640625 97.285156 52.269531 96.949219 51.40625 C 96.679688 51.398438 96.464844 51.175781 96.460938 50.902344 C 96.457031 50.632812 96.671875 50.40625 96.941406 50.394531 Z M 88.863281 56.429688 C 88.726562 56.117188 88.613281 55.863281 88.527344 55.523438 C 87.34375 56.96875 86.695312 58.871094 87.34375 60.722656 C 87.765625 61.917969 89.398438 62.464844 89.171875 64.03125 L 89.886719 64.355469 C 90.324219 61.84375 88.257812 61.570312 88.011719 59.976562 C 87.78125 58.484375 88.121094 57.714844 88.863281 56.429688 Z M 89.820312 51.273438 C 90.433594 50.75 91.09375 50.699219 91.742188 51.183594 C 92.613281 51.828125 92.246094 53.261719 91.738281 54.003906 C 91.265625 54.691406 90.542969 55.320312 89.710938 55.652344 C 89.632812 55.457031 89.585938 55.160156 89.53125 54.941406 C 90.144531 54.601562 90.835938 54.019531 91.101562 53.617188 C 91.347656 53.230469 91.820312 52.160156 91.304688 51.773438 C 91.039062 51.578125 90.828125 51.554688 90.554688 51.726562 C 90.410156 51.710938 89.804688 51.359375 89.820312 51.273438 Z M 91.511719 57.273438 C 91.195312 56.921875 91.230469 56.390625 91.582031 56.058594 C 91.949219 55.714844 92.410156 55.730469 92.804688 55.929688 C 93.320312 56.191406 93.214844 56.96875 92.890625 57.375 C 92.542969 57.816406 91.925781 58.132812 91.289062 58.097656 C 88.839844 57.964844 87.863281 54.378906 88.96875 52.347656 C 88.996094 52.296875 88.992188 52.289062 89.023438 52.242188 C 89.234375 52.511719 89.46875 52.621094 89.671875 52.714844 C 88.945312 54.007812 89.417969 57.625 91.511719 57.273438 Z M 96.074219 50.816406 C 96.679688 50.199219 97.171875 49.140625 97.132812 48.136719 C 97.082031 46.816406 96.40625 45.503906 94.925781 45.644531 C 94.394531 45.695312 93.964844 46.09375 93.941406 46.667969 C 93.902344 47.6875 95.28125 48.546875 96.140625 47.859375 C 96.246094 48.734375 95.96875 49.488281 95.390625 50.132812 C 95.554688 50.261719 95.941406 50.636719 96.074219 50.816406 Z M 92.402344 52.867188 C 93.308594 52.707031 94.238281 52.328125 94.984375 51.746094 C 94.820312 51.527344 94.515625 51.28125 94.300781 51.070312 C 93.726562 51.410156 92.976562 51.714844 92.367188 51.863281 C 92.492188 52.046875 92.566406 52.578125 92.402344 52.867188 Z M 88.914062 49.695312 C 88.640625 50.0625 88.515625 50.527344 88.574219 51.074219 C 88.710938 52.34375 90.074219 52.917969 91.234375 52.960938 C 91.429688 52.675781 91.445312 52.265625 91.320312 51.960938 C 90.617188 51.914062 89.613281 51.671875 89.535156 50.972656 C 89.515625 50.792969 89.542969 50.636719 89.605469 50.5 C 89.429688 50.363281 89.039062 49.921875 88.914062 49.695312 Z M 95.625 54.863281 C 95.441406 54.269531 94.816406 53.957031 94.207031 54.132812 C 93.570312 54.320312 93.28125 54.855469 93.246094 55.433594 C 93.199219 56.191406 94.148438 56.589844 94.828125 56.492188 C 95.558594 56.390625 96.328125 55.902344 96.710938 55.160156 C 98.183594 52.296875 94.777344 48.804688 91.738281 48.710938 C 90.996094 48.6875 90.34375 48.792969 89.828125 49.011719 C 90.003906 49.285156 90.234375 49.628906 90.632812 49.851562 C 90.921875 49.785156 91.253906 49.753906 91.617188 49.746094 C 93.542969 49.714844 97.4375 52.699219 95.625 54.863281 Z M 88.492188 46.445312 C 88.320312 47.457031 88.453125 48.539062 88.929688 49.355469 C 89.691406 50.671875 90.789062 51.1875 91.730469 50.449219 C 91.925781 50.296875 92.054688 50.152344 92.132812 49.941406 C 92.027344 49.871094 91.566406 49.84375 91.355469 49.851562 C 91.332031 49.878906 91.304688 49.84375 91.277344 49.867188 C 90.636719 50.371094 89.953125 49.492188 89.644531 49.015625 C 89.339844 48.546875 89.203125 47.75 89.273438 46.914062 C 88.992188 46.785156 88.714844 46.625 88.492188 46.445312 Z M 92.398438 39.691406 C 92.757812 41.230469 93.933594 41.546875 94.835938 41.464844 C 95.21875 41.429688 95.460938 42.203125 94.582031 42.761719 C 96.023438 42.597656 95.878906 41.601562 95.515625 41.289062 C 96.222656 41.375 97.113281 40.660156 96.761719 39.890625 C 96.703125 40.386719 96.113281 40.8125 95.609375 40.667969 C 96.042969 40.296875 95.828125 39.410156 95.261719 39.03125 C 94.875 38.769531 94.308594 38.902344 94.011719 39.21875 C 93.675781 39.585938 93.8125 40.082031 94.097656 40.285156 C 94.398438 40.492188 94.851562 40.320312 94.96875 40.027344 C 94.628906 40.125 94.34375 40 94.363281 39.769531 C 94.390625 39.429688 94.707031 39.402344 94.921875 39.585938 C 95.367188 39.964844 95.136719 40.742188 94.511719 40.816406 C 94.039062 40.851562 93.167969 40.933594 92.398438 39.691406 Z M 93.28125 32.71875 C 93.246094 31.792969 94.300781 30.933594 94.734375 30.074219 C 94.800781 29.945312 94.664062 29.789062 94.539062 29.980469 C 94.351562 30.253906 93.878906 30.074219 94.011719 29.6875 C 94.101562 29.4375 94.484375 29.371094 94.644531 29.390625 C 94.890625 29.421875 95.039062 29.683594 95.089844 29.828125 C 95.339844 30.554688 93.960938 31.695312 94.996094 31.875 C 95.460938 30.890625 96.777344 31.535156 97.648438 31.414062 C 96.957031 31.960938 96.507812 33.351562 95.472656 33.003906 C 94.886719 33.875 96.664062 33.671875 97.011719 34.355469 C 97.082031 34.496094 97.167969 34.785156 97.019531 34.980469 C 96.921875 35.113281 96.609375 35.34375 96.367188 35.230469 C 95.996094 35.058594 96.191406 34.59375 96.519531 34.652344 C 96.742188 34.691406 96.730469 34.484375 96.589844 34.441406 C 95.667969 34.160156 94.320312 34.320312 93.679688 33.652344 C 93.425781 33.746094 93.140625 33.625 93.035156 33.375 C 92.925781 33.121094 93.039062 32.835938 93.28125 32.71875 Z M 88.132812 41.390625 C 87.890625 41.152344 87.683594 40.960938 87.476562 40.679688 C 86.917969 42.527344 87.066406 44.683594 88.410156 46.207031 C 89.25 47.152344 90.96875 47.046875 91.347656 48.582031 L 92.132812 48.613281 C 91.589844 46.125 89.574219 46.644531 88.746094 45.261719 C 87.886719 43.832031 87.925781 42.964844 88.132812 41.390625 Z M 87.042969 36.261719 C 87.410156 35.539062 87.996094 35.242188 88.78125 35.4375 C 89.832031 35.703125 90.046875 37.164062 89.859375 38.042969 C 89.6875 38.863281 89.257812 39.722656 88.621094 40.34375 C 88.472656 40.195312 88.316406 39.941406 88.179688 39.757812 C 88.617188 39.207031 89.035156 38.40625 89.121094 37.933594 C 89.203125 37.480469 89.230469 36.3125 88.605469 36.152344 C 88.285156 36.074219 88.082031 36.132812 87.894531 36.398438 C 87.753906 36.433594 87.058594 36.34375 87.042969 36.261719 Z M 90.902344 41.152344 C 90.472656 40.949219 90.304688 40.445312 90.503906 40.003906 C 90.707031 39.546875 91.140625 39.382812 91.582031 39.417969 C 92.160156 39.460938 92.359375 40.21875 92.214844 40.71875 C 92.0625 41.257812 91.613281 41.789062 91.015625 42 C 88.699219 42.8125 86.421875 39.878906 86.667969 37.578125 C 86.671875 37.523438 86.667969 37.515625 86.675781 37.460938 C 86.976562 37.628906 87.234375 37.640625 87.457031 37.648438 C 87.28125 39.121094 89.101562 42.28125 90.902344 41.152344 Z M 92.640625 33.4375 C 92.964844 32.640625 93.015625 31.476562 92.59375 30.558594 C 92.039062 29.359375 90.914062 28.40625 89.601562 29.101562 C 89.128906 29.355469 88.886719 29.886719 89.085938 30.421875 C 89.4375 31.382812 91.042969 31.648438 91.570312 30.683594 C 92.007812 31.453125 92.035156 32.253906 91.75 33.070312 C 91.953125 33.128906 92.449219 33.328125 92.640625 33.4375 Z M 90.035156 36.742188 C 90.8125 36.246094 91.527344 35.542969 91.996094 34.714844 C 91.757812 34.578125 91.378906 34.464844 91.105469 34.355469 C 90.703125 34.890625 90.125 35.457031 89.621094 35.828125 C 89.804688 35.949219 90.078125 36.410156 90.035156 36.742188 Z M 85.601562 35.148438 C 85.488281 35.59375 85.550781 36.070312 85.816406 36.554688 C 86.429688 37.671875 87.90625 37.679688 88.992188 37.277344 C 89.066406 36.9375 88.925781 36.550781 88.691406 36.316406 C 88.019531 36.542969 87.003906 36.703125 86.664062 36.089844 C 86.578125 35.933594 86.539062 35.777344 86.546875 35.628906 C 86.332031 35.566406 85.804688 35.3125 85.601562 35.148438 Z M 93.777344 37.351562 C 93.378906 36.871094 92.683594 36.824219 92.1875 37.222656 C 91.675781 37.636719 91.609375 38.242188 91.800781 38.789062 C 92.050781 39.507812 93.078125 39.511719 93.667969 39.164062 C 94.300781 38.785156 94.824219 38.042969 94.894531 37.210938 C 95.160156 34 90.671875 32.082031 87.832031 33.15625 C 87.136719 33.417969 86.574219 33.765625 86.183594 34.167969 C 86.449219 34.351562 86.792969 34.582031 87.246094 34.636719 C 87.488281 34.464844 87.785156 34.304688 88.117188 34.160156 C 89.882812 33.394531 94.625 34.65625 93.777344 37.351562 Z M 83.964844 32.308594 C 84.195312 33.308594 84.734375 34.257812 85.484375 34.832031 C 86.695312 35.753906 87.90625 35.808594 88.492188 34.765625 C 88.609375 34.550781 88.675781 34.367188 88.664062 34.144531 C 88.546875 34.117188 88.105469 34.269531 87.914062 34.359375 C 87.902344 34.390625 87.867188 34.371094 87.847656 34.402344 C 87.449219 35.113281 86.484375 34.5625 86.015625 34.242188 C 85.554688 33.921875 85.125 33.242188 84.867188 32.441406 C 84.554688 32.433594 84.238281 32.386719 83.964844 32.308594 Z M 85.019531 24.617188 C 85.9375 25.902344 87.144531 25.746094 87.949219 25.324219 C 88.289062 25.148438 88.8125 25.769531 88.210938 26.621094 C 89.480469 25.921875 88.96875 25.054688 88.511719 24.90625 C 89.195312 24.714844 89.75 23.714844 89.128906 23.136719 C 89.265625 23.617188 88.882812 24.238281 88.363281 24.296875 C 88.621094 23.785156 88.082031 23.046875 87.414062 22.914062 C 86.957031 22.820312 86.484375 23.15625 86.332031 23.566406 C 86.160156 24.03125 86.476562 24.441406 86.816406 24.515625 C 87.171875 24.59375 87.527344 24.265625 87.523438 23.949219 C 87.246094 24.167969 86.933594 24.160156 86.863281 23.941406 C 86.761719 23.617188 87.042969 23.46875 87.3125 23.558594 C 87.871094 23.738281 87.953125 24.546875 87.402344 24.851562 C 86.976562 25.0625 86.207031 25.472656 85.019531 24.617188 Z M 83.171875 17.835938 C 82.789062 16.992188 83.433594 15.796875 83.507812 14.835938 C 83.515625 14.691406 83.332031 14.605469 83.285156 14.824219 C 83.21875 15.152344 82.714844 15.164062 82.691406 14.753906 C 82.675781 14.492188 83.007812 14.285156 83.164062 14.238281 C 83.398438 14.175781 83.640625 14.359375 83.742188 14.476562 C 84.25 15.050781 83.410156 16.632812 84.433594 16.40625 C 84.492188 15.316406 85.949219 15.40625 86.710938 14.964844 C 86.28125 15.730469 86.394531 17.191406 85.308594 17.261719 C 85.097656 18.292969 86.664062 17.425781 87.246094 17.925781 C 87.363281 18.027344 87.554688 18.261719 87.492188 18.5 C 87.449219 18.660156 87.25 18.992188 86.984375 18.980469 C 86.574219 18.960938 86.578125 18.457031 86.902344 18.386719 C 87.125 18.335938 87.035156 18.152344 86.890625 18.167969 C 85.929688 18.257812 84.746094 18.917969 83.894531 18.546875 C 83.699219 18.730469 83.386719 18.726562 83.195312 18.539062 C 83 18.347656 82.992188 18.035156 83.171875 17.835938 Z M 81.726562 27.816406 C 81.410156 27.6875 81.148438 27.589844 80.847656 27.414062 C 81.027344 29.203125 82.09375 31.289062 83.796875 32.117188 C 84.933594 32.671875 86.484375 31.914062 87.421875 33.1875 L 88.15625 32.914062 C 86.703125 30.824219 85.042969 32.078125 83.746094 31.121094 C 82.558594 30.238281 82.09375 29.199219 81.726562 27.816406 Z M 78.761719 23.492188 C 78.824219 22.6875 79.25 22.1875 80.054688 22.070312 C 81.125 21.914062 81.878906 23.183594 82.046875 24.066406 C 82.199219 24.886719 82.128906 25.847656 81.777344 26.664062 C 81.585938 26.585938 81.34375 26.40625 81.148438 26.292969 C 81.339844 25.617188 81.417969 24.714844 81.320312 24.246094 C 81.222656 23.796875 80.800781 22.703125 80.164062 22.796875 C 79.835938 22.84375 79.671875 22.980469 79.597656 23.296875 C 79.484375 23.382812 78.808594 23.566406 78.761719 23.492188 Z M 84.195312 26.539062 C 83.722656 26.515625 83.371094 26.113281 83.386719 25.632812 C 83.402344 25.128906 83.738281 24.8125 84.160156 24.675781 C 84.710938 24.496094 85.1875 25.121094 85.246094 25.636719 C 85.308594 26.195312 85.097656 26.855469 84.621094 27.28125 C 82.796875 28.917969 79.570312 27.074219 78.917969 24.855469 C 78.902344 24.800781 78.890625 24.796875 78.878906 24.742188 C 79.21875 24.78125 79.460938 24.695312 79.671875 24.617188 C 80.070312 26.042969 82.964844 28.269531 84.195312 26.539062 Z M 82.855469 18.746094 C 82.851562 17.886719 82.453125 16.789062 81.710938 16.105469 C 80.742188 15.207031 79.335938 14.757812 78.390625 15.902344 C 78.050781 16.3125 78.027344 16.898438 78.417969 17.320312 C 79.109375 18.070312 80.695312 17.703125 80.816406 16.609375 C 81.511719 17.152344 81.84375 17.886719 81.894531 18.746094 C 82.101562 18.722656 82.636719 18.71875 82.855469 18.746094 Z M 81.710938 22.796875 C 82.238281 22.039062 82.628906 21.117188 82.746094 20.175781 C 82.476562 20.136719 82.085938 20.179688 81.785156 20.179688 C 81.617188 20.828125 81.304688 21.574219 80.980469 22.109375 C 81.195312 22.152344 81.621094 22.472656 81.710938 22.796875 Z M 77.003906 23.015625 C 77.066406 23.472656 77.304688 23.886719 77.738281 24.234375 C 78.730469 25.03125 80.101562 24.476562 80.953125 23.6875 C 80.886719 23.347656 80.609375 23.042969 80.304688 22.917969 C 79.773438 23.382812 78.894531 23.917969 78.34375 23.480469 C 78.203125 23.367188 78.113281 23.238281 78.058594 23.097656 C 77.839844 23.125 77.25 23.089844 77.003906 23.015625 Z M 85.402344 21.925781 C 84.851562 21.640625 84.1875 21.859375 83.882812 22.414062 C 83.566406 22.996094 83.738281 23.578125 84.125 24.011719 C 84.628906 24.582031 85.578125 24.195312 85.992188 23.644531 C 86.433594 23.054688 86.632812 22.167969 86.378906 21.371094 C 85.398438 18.304688 80.519531 18.242188 78.304688 20.324219 C 77.761719 20.832031 77.375 21.367188 77.167969 21.890625 C 77.484375 21.957031 77.886719 22.035156 78.328125 21.914062 C 78.484375 21.664062 78.699219 21.402344 78.949219 21.140625 C 80.289062 19.757812 85.15625 19.113281 85.402344 21.925781 Z M 74.40625 21.015625 C 75 21.855469 75.859375 22.527344 76.773438 22.769531 C 78.242188 23.15625 79.386719 22.746094 79.527344 21.558594 C 79.554688 21.3125 79.546875 21.121094 79.449219 20.917969 C 79.328125 20.9375 78.984375 21.246094 78.835938 21.402344 C 78.839844 21.4375 78.800781 21.429688 78.796875 21.46875 C 78.699219 22.277344 77.59375 22.136719 77.039062 22.019531 C 76.488281 21.902344 75.832031 21.4375 75.289062 20.792969 C 75 20.90625 74.691406 20.984375 74.40625 21.015625 Z M 56.496094 8.03125 C 58.054688 8.285156 58.796875 7.320312 59.066406 6.457031 C 59.179688 6.089844 59.992188 6.160156 60.167969 7.1875 C 60.570312 5.792969 59.59375 5.542969 59.167969 5.761719 C 59.515625 5.140625 59.199219 4.042969 58.351562 4.074219 C 58.785156 4.316406 58.957031 5.027344 58.628906 5.4375 C 58.453125 4.894531 57.550781 4.753906 56.980469 5.128906 C 56.59375 5.386719 56.5 5.960938 56.679688 6.355469 C 56.886719 6.808594 57.398438 6.875 57.695312 6.683594 C 58 6.488281 58.015625 6.007812 57.792969 5.785156 C 57.753906 6.136719 57.527344 6.351562 57.320312 6.246094 C 57.019531 6.089844 57.113281 5.785156 57.367188 5.65625 C 57.886719 5.390625 58.515625 5.902344 58.347656 6.507812 C 58.195312 6.957031 57.9375 7.792969 56.496094 8.03125 Z M 50.394531 4.539062 C 49.523438 4.21875 49.132812 2.917969 48.507812 2.183594 C 48.410156 2.074219 48.21875 2.144531 48.34375 2.332031 C 48.527344 2.609375 48.179688 2.976562 47.875 2.703125 C 47.675781 2.527344 47.761719 2.148438 47.84375 2.007812 C 47.960938 1.792969 48.261719 1.753906 48.417969 1.761719 C 49.183594 1.8125 49.707031 3.523438 50.273438 2.636719 C 49.542969 1.828125 50.636719 0.859375 50.863281 0.0078125 C 51.101562 0.855469 52.210938 1.804688 51.496094 2.625 C 52.074219 3.503906 52.570312 1.78125 53.335938 1.722656 C 53.488281 1.710938 53.792969 1.742188 53.914062 1.957031 C 53.996094 2.097656 54.089844 2.472656 53.894531 2.652344 C 53.59375 2.929688 53.242188 2.570312 53.417969 2.289062 C 53.542969 2.101562 53.347656 2.035156 53.253906 2.144531 C 52.640625 2.886719 52.269531 4.195312 51.40625 4.53125 C 51.398438 4.800781 51.175781 5.019531 50.902344 5.019531 C 50.632812 5.023438 50.40625 4.808594 50.394531 4.539062 Z M 51.273438 11.660156 C 50.75 11.046875 50.699219 10.390625 51.179688 9.742188 C 51.828125 8.871094 53.261719 9.234375 54.003906 9.742188 C 54.691406 10.214844 55.320312 10.941406 55.652344 11.769531 C 55.457031 11.847656 55.160156 11.894531 54.941406 11.949219 C 54.601562 11.335938 54.019531 10.644531 53.613281 10.382812 C 53.230469 10.132812 52.160156 9.660156 51.773438 10.179688 C 51.578125 10.441406 51.554688 10.652344 51.726562 10.929688 C 51.707031 11.070312 51.359375 11.679688 51.273438 11.660156 Z M 57.269531 9.96875 C 56.921875 10.289062 56.390625 10.25 56.058594 9.902344 C 55.714844 9.535156 55.726562 9.070312 55.929688 8.679688 C 56.191406 8.160156 56.96875 8.265625 57.375 8.589844 C 57.816406 8.941406 58.132812 9.554688 58.097656 10.191406 C 57.964844 12.640625 54.378906 13.621094 52.347656 12.511719 C 52.296875 12.484375 52.289062 12.488281 52.242188 12.460938 C 52.511719 12.246094 52.621094 12.011719 52.714844 11.8125 C 54.007812 12.535156 57.625 12.066406 57.269531 9.96875 Z M 50.816406 5.410156 C 50.199219 4.804688 49.140625 4.3125 48.136719 4.351562 C 46.816406 4.402344 45.503906 5.078125 45.644531 6.558594 C 45.695312 7.089844 46.09375 7.515625 46.664062 7.539062 C 47.6875 7.582031 48.546875 6.199219 47.859375 5.339844 C 48.734375 5.234375 49.488281 5.515625 50.132812 6.089844 C 50.261719 5.925781 50.636719 5.542969 50.816406 5.410156 Z M 52.867188 9.082031 C 52.707031 8.171875 52.328125 7.246094 51.746094 6.496094 C 51.527344 6.660156 51.28125 6.96875 51.070312 7.179688 C 51.410156 7.757812 51.714844 8.503906 51.863281 9.113281 C 52.046875 8.992188 52.578125 8.914062 52.867188 9.082031 Z M 49.695312 12.566406 C 50.0625 12.84375 50.527344 12.96875 51.074219 12.90625 C 52.339844 12.769531 52.917969 11.40625 52.960938 10.25 C 52.675781 10.054688 52.265625 10.035156 51.957031 10.164062 C 51.910156 10.867188 51.667969 11.867188 50.972656 11.945312 C 50.792969 11.964844 50.636719 11.941406 50.5 11.878906 C 50.363281 12.054688 49.921875 12.441406 49.695312 12.566406 Z M 54.863281 5.855469 C 54.269531 6.042969 53.957031 6.667969 54.132812 7.277344 C 54.320312 7.910156 54.855469 8.199219 55.433594 8.234375 C 56.191406 8.28125 56.589844 7.332031 56.492188 6.65625 C 56.390625 5.925781 55.902344 5.15625 55.160156 4.773438 C 52.296875 3.296875 48.804688 6.707031 48.710938 9.742188 C 48.6875 10.484375 48.792969 11.136719 49.011719 11.65625 C 49.285156 11.476562 49.628906 11.25 49.851562 10.851562 C 49.785156 10.5625 49.753906 10.226562 49.746094 9.863281 C 49.714844 7.9375 52.699219 4.042969 54.863281 5.855469 Z M 46.445312 12.988281 C 47.457031 13.164062 48.539062 13.027344 49.355469 12.554688 C 50.671875 11.789062 51.1875 10.691406 50.445312 9.75 C 50.292969 9.558594 50.152344 9.429688 49.941406 9.351562 C 49.871094 9.453125 49.84375 9.914062 49.851562 10.128906 C 49.875 10.148438 49.84375 10.175781 49.867188 10.203125 C 50.371094 10.84375 49.492188 11.527344 49.015625 11.835938 C 48.542969 12.140625 47.75 12.277344 46.910156 12.207031 C 46.785156 12.492188 46.625 12.765625 46.445312 12.988281 Z M 72.433594 13.503906 C 73.777344 14.335938 74.828125 13.730469 75.414062 13.035156 C 75.660156 12.742188 76.378906 13.117188 76.148438 14.132812 C 77.054688 13 76.25 12.394531 75.773438 12.433594 C 76.332031 11.992188 76.457031 10.859375 75.667969 10.5625 C 75.972656 10.953125 75.859375 11.671875 75.398438 11.925781 C 75.441406 11.355469 74.664062 10.878906 73.996094 11.011719 C 73.539062 11.097656 73.230469 11.589844 73.246094 12.027344 C 73.261719 12.523438 73.714844 12.78125 74.058594 12.71875 C 74.414062 12.65625 74.617188 12.214844 74.492188 11.925781 C 74.320312 12.234375 74.03125 12.347656 73.878906 12.171875 C 73.660156 11.910156 73.863281 11.667969 74.148438 11.644531 C 74.734375 11.597656 75.117188 12.3125 74.726562 12.804688 C 74.414062 13.164062 73.855469 13.835938 72.433594 13.503906 Z M 68.136719 7.9375 C 67.457031 7.308594 67.597656 5.957031 67.296875 5.039062 C 67.253906 4.902344 67.046875 4.890625 67.089844 5.113281 C 67.152344 5.441406 66.691406 5.644531 66.515625 5.277344 C 66.398438 5.035156 66.625 4.722656 66.753906 4.621094 C 66.945312 4.46875 67.238281 4.546875 67.378906 4.617188 C 68.066406 4.953125 67.894531 6.738281 68.753906 6.132812 C 68.390625 5.105469 69.773438 4.632812 70.308594 3.929688 C 70.203125 4.808594 70.867188 6.109375 69.890625 6.59375 C 70.089844 7.625 71.203125 6.226562 71.933594 6.464844 C 72.082031 6.511719 72.347656 6.660156 72.382812 6.902344 C 72.402344 7.066406 72.34375 7.449219 72.09375 7.539062 C 71.710938 7.679688 71.519531 7.210938 71.792969 7.019531 C 71.980469 6.890625 71.824219 6.757812 71.699219 6.824219 C 70.84375 7.273438 70.003906 8.339844 69.074219 8.320312 C 68.964844 8.566406 68.675781 8.679688 68.425781 8.578125 C 68.171875 8.476562 68.046875 8.195312 68.136719 7.9375 Z M 70.613281 17.714844 C 70.273438 17.71875 69.992188 17.726562 69.648438 17.675781 C 70.535156 19.339844 72.214844 20.785156 74.179688 20.90625 C 75.441406 20.984375 76.582031 19.691406 77.9375 20.507812 L 78.511719 19.976562 C 76.371094 18.597656 75.3125 20.390625 73.75 20 C 72.234375 19.621094 71.535156 18.917969 70.613281 17.714844 Z M 64.320312 12.410156 L 64.648438 11.699219 C 62.140625 11.242188 61.847656 13.304688 60.253906 13.542969 C 58.773438 13.757812 57.683594 13.34375 56.429688 12.621094 C 56.117188 12.753906 55.859375 12.867188 55.523438 12.953125 C 56.933594 14.109375 59.199219 14.828125 60.996094 14.210938 C 62.195312 13.800781 62.753906 12.171875 64.320312 12.410156 Z M 66.21875 14.851562 C 65.972656 14.085938 66.175781 13.457031 66.871094 13.042969 C 67.800781 12.488281 68.984375 13.375 69.472656 14.128906 C 69.929688 14.828125 70.234375 15.742188 70.21875 16.632812 C 70.011719 16.632812 69.71875 16.558594 69.496094 16.527344 C 69.414062 15.828125 69.144531 14.964844 68.871094 14.570312 C 68.613281 14.191406 67.804688 13.34375 67.25 13.675781 C 66.96875 13.84375 66.867188 14.03125 66.917969 14.351562 C 66.847656 14.476562 66.292969 14.902344 66.21875 14.851562 Z M 72.40625 15.589844 C 71.960938 15.75 71.484375 15.515625 71.3125 15.0625 C 71.132812 14.59375 71.324219 14.167969 71.664062 13.882812 C 72.101562 13.507812 72.78125 13.902344 73.03125 14.355469 C 73.304688 14.847656 73.359375 15.539062 73.085938 16.113281 C 72.023438 18.324219 68.335938 17.851562 66.886719 16.050781 C 66.851562 16.007812 66.839844 16.007812 66.808594 15.960938 C 67.136719 15.871094 67.328125 15.695312 67.492188 15.542969 C 68.40625 16.710938 71.929688 17.660156 72.40625 15.589844 Z M 68.191406 8.902344 C 67.859375 8.109375 67.070312 7.246094 66.125 6.898438 C 64.886719 6.4375 63.414062 6.558594 62.976562 7.980469 C 62.820312 8.492188 63.023438 9.039062 63.542969 9.28125 C 64.472656 9.710938 65.792969 8.761719 65.492188 7.707031 C 66.339844 7.945312 66.925781 8.492188 67.300781 9.269531 C 67.484375 9.167969 67.976562 8.957031 68.191406 8.902344 Z M 68.679688 13.082031 C 68.878906 12.179688 68.886719 11.179688 68.636719 10.265625 C 68.371094 10.332031 68.023438 10.519531 67.75 10.636719 C 67.84375 11.300781 67.835938 12.105469 67.742188 12.726562 C 67.957031 12.683594 68.476562 12.816406 68.679688 13.082031 Z M 64.414062 15.085938 C 64.648438 15.480469 65.027344 15.773438 65.558594 15.929688 C 66.78125 16.285156 67.832031 15.25 68.320312 14.195312 C 68.132812 13.90625 67.757812 13.730469 67.425781 13.730469 C 67.113281 14.363281 66.507812 15.195312 65.832031 15 C 65.660156 14.949219 65.523438 14.867188 65.421875 14.757812 C 65.226562 14.867188 64.671875 15.054688 64.414062 15.085938 Z M 71.757812 10.867188 C 71.140625 10.8125 70.613281 11.269531 70.542969 11.898438 C 70.46875 12.558594 70.851562 13.03125 71.375 13.285156 C 72.058594 13.617188 72.789062 12.894531 72.960938 12.230469 C 73.144531 11.515625 72.988281 10.621094 72.449219 9.980469 C 70.371094 7.519531 65.839844 9.332031 64.585938 12.097656 C 64.28125 12.773438 64.128906 13.417969 64.132812 13.980469 C 64.453125 13.921875 64.859375 13.839844 65.214844 13.558594 C 65.265625 13.265625 65.363281 12.945312 65.496094 12.609375 C 66.207031 10.816406 70.457031 8.363281 71.757812 10.867188 Z M 61.25 14.226562 C 62.117188 14.777344 63.171875 15.066406 64.105469 14.941406 C 65.613281 14.742188 66.511719 13.925781 66.1875 12.769531 C 66.121094 12.535156 66.039062 12.359375 65.875 12.207031 C 65.769531 12.273438 65.566406 12.691406 65.492188 12.890625 C 65.507812 12.921875 65.46875 12.933594 65.480469 12.96875 C 65.699219 13.753906 64.625 14.046875 64.070312 14.148438 C 63.515625 14.25 62.730469 14.070312 61.980469 13.6875 C 61.757812 13.898438 61.5 14.089844 61.25 14.226562 Z M 60.421875 10.804688 C 60.632812 11.230469 61.140625 11.386719 61.578125 11.175781 C 62.03125 10.957031 62.183594 10.519531 62.136719 10.078125 C 62.074219 9.503906 61.3125 9.324219 60.816406 9.480469 C 60.28125 9.652344 59.765625 10.113281 59.570312 10.71875 C 59.25 11.703125 59.605469 12.667969 60.289062 13.425781 C 60.597656 13.378906 60.859375 13.21875 61.050781 13.078125 C 60.328125 12.457031 59.925781 11.640625 60.421875 10.804688 Z M 44.367188 10.148438 C 44.726562 10.457031 45.253906 10.40625 45.578125 10.046875 C 45.910156 9.671875 45.882812 9.207031 45.671875 8.820312 C 45.394531 8.308594 44.621094 8.4375 44.222656 8.773438 C 43.792969 9.132812 43.492188 9.757812 43.546875 10.390625 C 43.632812 11.425781 44.324219 12.179688 45.25 12.617188 C 45.519531 12.453125 45.699219 12.207031 45.820312 12.003906 C 44.914062 11.707031 44.230469 11.109375 44.367188 10.148438 Z M 74.949219 17.535156 C 74.984375 18.007812 75.394531 18.347656 75.875 18.320312 C 76.375 18.292969 76.683594 17.945312 76.808594 17.523438 C 76.976562 16.964844 76.339844 16.507812 75.820312 16.464844 C 75.257812 16.414062 74.605469 16.644531 74.195312 17.128906 C 73.523438 17.921875 73.480469 18.945312 73.824219 19.90625 C 74.128906 19.980469 74.429688 19.933594 74.660156 19.875 C 74.230469 19.027344 74.171875 18.121094 74.949219 17.535156 Z M 85.792969 29.300781 C 85.648438 29.75 85.894531 30.21875 86.351562 30.378906 C 86.828125 30.542969 87.242188 30.339844 87.519531 29.996094 C 87.886719 29.546875 87.472656 28.878906 87.011719 28.640625 C 86.511719 28.382812 85.820312 28.34375 85.253906 28.636719 C 84.332031 29.109375 83.902344 30.039062 83.851562 31.0625 C 84.105469 31.246094 84.402344 31.320312 84.636719 31.351562 C 84.5625 30.402344 84.855469 29.542969 85.792969 29.300781 Z M 91.335938 44.367188 C 91.027344 44.726562 91.078125 45.253906 91.4375 45.578125 C 91.8125 45.910156 92.273438 45.882812 92.664062 45.671875 C 93.171875 45.394531 93.046875 44.621094 92.710938 44.222656 C 92.347656 43.792969 91.722656 43.496094 91.089844 43.546875 C 90.058594 43.632812 89.304688 44.324219 88.863281 45.25 C 89.027344 45.519531 89.273438 45.699219 89.480469 45.820312 C 89.773438 44.914062 90.375 44.230469 91.335938 44.367188 Z M 57.40625 91.289062 C 57.042969 90.980469 56.515625 91.035156 56.195312 91.398438 C 55.863281 91.777344 55.894531 92.238281 56.109375 92.625 C 56.390625 93.132812 57.160156 93 57.558594 92.664062 C 57.984375 92.296875 58.28125 91.671875 58.222656 91.035156 C 58.132812 90.003906 57.433594 89.257812 56.503906 88.824219 C 56.238281 88.992188 56.058594 89.238281 55.941406 89.441406 C 56.847656 89.730469 57.535156 90.328125 57.40625 91.289062 Z M 39.707031 9.3125 C 41.246094 8.953125 41.5625 7.777344 41.484375 6.875 C 41.449219 6.492188 42.222656 6.25 42.78125 7.132812 C 42.621094 5.691406 41.621094 5.832031 41.3125 6.195312 C 41.398438 5.488281 40.683594 4.59375 39.914062 4.945312 C 40.410156 5.003906 40.835938 5.59375 40.691406 6.097656 C 40.316406 5.664062 39.429688 5.878906 39.050781 6.445312 C 38.789062 6.828125 38.917969 7.394531 39.238281 7.691406 C 39.601562 8.035156 40.101562 7.898438 40.300781 7.609375 C 40.507812 7.3125 40.339844 6.859375 40.046875 6.738281 C 40.144531 7.082031 40.019531 7.367188 39.789062 7.347656 C 39.449219 7.316406 39.421875 7 39.605469 6.785156 C 39.984375 6.339844 40.765625 6.574219 40.835938 7.199219 C 40.867188 7.671875 40.949219 8.542969 39.707031 9.3125 Z M 32.734375 8.414062 C 31.808594 8.445312 30.953125 7.390625 30.089844 6.953125 C 29.960938 6.886719 29.8125 7.027344 30 7.152344 C 30.273438 7.339844 30.089844 7.808594 29.703125 7.675781 C 29.453125 7.585938 29.390625 7.203125 29.410156 7.042969 C 29.4375 6.796875 29.703125 6.648438 29.847656 6.597656 C 30.574219 6.351562 31.710938 7.734375 31.898438 6.699219 C 30.914062 6.226562 31.558594 4.914062 31.4375 4.042969 C 31.984375 4.734375 33.375 5.191406 33.023438 6.222656 C 33.894531 6.8125 33.695312 5.03125 34.378906 4.683594 C 34.519531 4.617188 34.808594 4.53125 35.003906 4.679688 C 35.136719 4.777344 35.367188 5.089844 35.253906 5.332031 C 35.078125 5.703125 34.613281 5.507812 34.671875 5.179688 C 34.714844 4.957031 34.507812 4.96875 34.464844 5.105469 C 34.179688 6.027344 34.339844 7.375 33.667969 8.019531 C 33.761719 8.273438 33.640625 8.554688 33.390625 8.664062 C 33.140625 8.769531 32.851562 8.65625 32.734375 8.414062 Z M 41.398438 13.578125 C 41.15625 13.820312 40.964844 14.023438 40.683594 14.234375 C 42.894531 14.953125 45.335938 13.839844 46.207031 13.070312 C 47.152344 12.234375 47.046875 10.515625 48.582031 10.132812 L 48.613281 9.351562 C 46.125 9.890625 46.644531 11.90625 45.261719 12.734375 C 43.914062 13.546875 42.914062 13.78125 41.398438 13.578125 Z M 36.265625 14.65625 C 35.546875 14.289062 35.246094 13.703125 35.445312 12.917969 C 35.714844 11.867188 37.175781 11.65625 38.054688 11.84375 C 38.871094 12.019531 39.730469 12.449219 40.351562 13.089844 C 40.203125 13.238281 39.949219 13.390625 39.765625 13.527344 C 39.214844 13.089844 38.414062 12.671875 37.941406 12.582031 C 37.492188 12.5 36.320312 12.472656 36.160156 13.097656 C 36.082031 13.414062 36.140625 13.621094 36.40625 13.808594 C 36.441406 13.949219 36.351562 14.640625 36.265625 14.65625 Z M 41.164062 10.808594 C 40.960938 11.234375 40.457031 11.40625 40.015625 11.207031 C 39.558594 11 39.394531 10.566406 39.429688 10.125 C 39.476562 9.546875 40.234375 9.347656 40.734375 9.492188 C 41.273438 9.648438 41.800781 10.097656 42.011719 10.699219 C 42.824219 13.011719 39.882812 15.285156 37.582031 15.035156 C 37.527344 15.03125 37.519531 15.035156 37.464844 15.027344 C 37.632812 14.730469 37.644531 14.46875 37.652344 14.25 C 39.125 14.425781 42.289062 12.609375 41.164062 10.808594 Z M 33.457031 9.054688 C 32.65625 8.730469 31.492188 8.675781 30.574219 9.097656 C 29.375 9.648438 28.417969 10.773438 29.113281 12.089844 C 29.363281 12.558594 29.894531 12.804688 30.433594 12.605469 C 31.390625 12.253906 31.660156 10.652344 30.699219 10.117188 C 31.464844 9.6875 32.269531 9.660156 33.085938 9.945312 C 33.140625 9.742188 33.34375 9.246094 33.457031 9.054688 Z M 36.753906 11.664062 C 36.257812 10.886719 35.554688 10.171875 34.730469 9.703125 C 34.59375 9.941406 34.480469 10.316406 34.367188 10.59375 C 34.902344 10.996094 35.46875 11.574219 35.839844 12.078125 C 35.960938 11.894531 36.421875 11.625 36.753906 11.664062 Z M 35.152344 16.097656 C 35.597656 16.210938 36.070312 16.152344 36.558594 15.886719 C 37.675781 15.273438 37.6875 13.796875 37.285156 12.710938 C 36.949219 12.636719 36.558594 12.777344 36.328125 13.011719 C 36.550781 13.679688 36.710938 14.699219 36.09375 15.035156 C 35.9375 15.121094 35.78125 15.160156 35.632812 15.152344 C 35.570312 15.367188 35.3125 15.898438 35.152344 16.097656 Z M 37.367188 7.921875 C 36.890625 8.320312 36.839844 9.019531 37.234375 9.511719 C 37.648438 10.03125 38.253906 10.09375 38.804688 9.90625 C 39.523438 9.65625 39.527344 8.628906 39.179688 8.039062 C 38.804688 7.402344 38.0625 6.878906 37.230469 6.808594 C 34.019531 6.539062 32.09375 11.019531 33.164062 13.863281 C 33.425781 14.558594 33.769531 15.121094 34.171875 15.515625 C 34.355469 15.246094 34.585938 14.902344 34.640625 14.453125 C 34.46875 14.210938 34.3125 13.914062 34.167969 13.578125 C 33.402344 11.8125 34.675781 7.074219 37.367188 7.921875 Z M 32.308594 17.726562 C 33.308594 17.503906 34.261719 16.964844 34.832031 16.214844 C 35.757812 15.007812 35.816406 13.792969 34.773438 13.207031 C 34.558594 13.085938 34.378906 13.019531 34.152344 13.03125 C 34.125 13.152344 34.277344 13.589844 34.363281 13.785156 C 34.398438 13.792969 34.378906 13.832031 34.410156 13.847656 C 35.121094 14.25 34.566406 15.214844 34.246094 15.679688 C 33.925781 16.144531 33.242188 16.574219 32.441406 16.828125 C 32.433594 17.136719 32.386719 17.453125 32.308594 17.726562 Z M 13.445312 29.289062 C 14.277344 27.945312 13.671875 26.890625 12.976562 26.308594 C 12.683594 26.0625 13.058594 25.34375 14.078125 25.574219 C 12.945312 24.664062 12.335938 25.472656 12.375 25.949219 C 11.9375 25.390625 10.800781 25.261719 10.503906 26.054688 C 10.894531 25.746094 11.613281 25.863281 11.867188 26.320312 C 11.296875 26.277344 10.820312 27.058594 10.953125 27.726562 C 11.042969 28.183594 11.535156 28.492188 11.96875 28.476562 C 12.46875 28.457031 12.722656 28.007812 12.660156 27.664062 C 12.597656 27.304688 12.15625 27.105469 11.867188 27.230469 C 12.175781 27.398438 12.289062 27.691406 12.113281 27.839844 C 11.851562 28.058594 11.609375 27.855469 11.585938 27.570312 C 11.539062 26.988281 12.253906 26.605469 12.746094 26.992188 C 13.105469 27.308594 13.777344 27.863281 13.445312 29.289062 Z M 7.878906 33.585938 C 7.25 34.261719 5.898438 34.125 4.980469 34.421875 C 4.84375 34.46875 4.832031 34.671875 5.054688 34.628906 C 5.382812 34.566406 5.585938 35.027344 5.21875 35.207031 C 4.976562 35.320312 4.660156 35.09375 4.5625 34.96875 C 4.410156 34.773438 4.488281 34.480469 4.558594 34.34375 C 4.894531 33.652344 6.679688 33.824219 6.074219 32.964844 C 5.046875 33.328125 4.574219 31.945312 3.875 31.410156 C 4.75 31.515625 6.050781 30.851562 6.535156 31.832031 C 7.566406 31.632812 6.167969 30.515625 6.40625 29.785156 C 6.457031 29.636719 6.601562 29.371094 6.84375 29.339844 C 7.007812 29.316406 7.390625 29.375 7.480469 29.625 C 7.621094 30.011719 7.15625 30.199219 6.964844 29.925781 C 6.832031 29.742188 6.699219 29.894531 6.765625 30.023438 C 7.214844 30.875 8.28125 31.71875 8.261719 32.644531 C 8.507812 32.757812 8.621094 33.042969 8.519531 33.296875 C 8.417969 33.550781 8.132812 33.675781 7.878906 33.585938 Z M 12.351562 37.402344 L 11.636719 37.074219 C 11.183594 39.578125 13.246094 39.871094 13.480469 41.464844 C 13.722656 43.113281 13.367188 43.941406 12.578125 45.324219 C 12.714844 45.636719 12.832031 45.890625 12.921875 46.230469 C 14.015625 44.875 14.75 42.46875 14.152344 40.722656 C 13.742188 39.527344 12.113281 38.964844 12.351562 37.402344 Z M 14.792969 35.5 C 14.027344 35.75 13.398438 35.546875 12.984375 34.851562 C 12.429688 33.917969 13.316406 32.738281 14.070312 32.246094 C 14.769531 31.792969 15.683594 31.488281 16.574219 31.503906 C 16.574219 31.710938 16.5 32 16.46875 32.226562 C 15.769531 32.304688 14.90625 32.578125 14.511719 32.847656 C 14.132812 33.109375 13.285156 33.917969 13.617188 34.472656 C 13.785156 34.753906 13.972656 34.855469 14.292969 34.800781 C 14.414062 34.875 14.84375 35.429688 14.792969 35.5 Z M 15.53125 29.316406 C 15.691406 29.761719 15.457031 30.234375 15.003906 30.40625 C 14.535156 30.585938 14.113281 30.394531 13.824219 30.058594 C 13.449219 29.617188 13.84375 28.941406 14.300781 28.691406 C 14.792969 28.417969 15.480469 28.359375 16.054688 28.636719 C 18.265625 29.699219 17.792969 33.386719 15.992188 34.835938 C 15.949219 34.871094 15.949219 34.882812 15.902344 34.914062 C 15.8125 34.585938 15.636719 34.394531 15.484375 34.230469 C 16.652344 33.3125 17.601562 29.792969 15.53125 29.316406 Z M 8.84375 33.527344 C 8.050781 33.863281 7.1875 34.652344 6.839844 35.597656 C 6.378906 36.835938 6.5 38.304688 7.921875 38.742188 C 8.429688 38.902344 8.980469 38.695312 9.21875 38.175781 C 9.648438 37.25 8.703125 35.925781 7.648438 36.230469 C 7.882812 35.382812 8.433594 34.792969 9.210938 34.417969 C 9.109375 34.238281 8.898438 33.742188 8.84375 33.527344 Z M 13.023438 33.039062 C 12.121094 32.84375 11.121094 32.832031 10.203125 33.085938 C 10.273438 33.351562 10.460938 33.695312 10.578125 33.96875 C 11.242188 33.878906 12.046875 33.886719 12.667969 33.980469 C 12.625 33.765625 12.757812 33.246094 13.023438 33.039062 Z M 15.023438 37.304688 C 15.417969 37.074219 15.714844 36.695312 15.871094 36.164062 C 16.226562 34.941406 15.191406 33.886719 14.136719 33.402344 C 13.847656 33.589844 13.671875 33.964844 13.671875 34.292969 C 14.304688 34.609375 15.136719 35.214844 14.941406 35.890625 C 14.890625 36.0625 14.808594 36.199219 14.699219 36.300781 C 14.804688 36.496094 14.996094 37.050781 15.023438 37.304688 Z M 10.808594 29.960938 C 10.753906 30.582031 11.210938 31.109375 11.839844 31.179688 C 12.5 31.25 12.972656 30.867188 13.226562 30.347656 C 13.558594 29.664062 12.835938 28.933594 12.171875 28.761719 C 11.460938 28.578125 10.5625 28.730469 9.921875 29.269531 C 7.460938 31.351562 9.269531 35.882812 12.039062 37.132812 C 12.714844 37.441406 13.359375 37.59375 13.921875 37.585938 C 13.859375 37.269531 13.78125 36.863281 13.5 36.503906 C 13.207031 36.453125 12.886719 36.355469 12.546875 36.222656 C 10.757812 35.515625 8.304688 31.265625 10.808594 29.960938 Z M 14.167969 40.46875 C 14.714844 39.601562 15.007812 38.550781 14.882812 37.613281 C 14.679688 36.105469 13.867188 35.207031 12.710938 35.53125 C 12.476562 35.597656 12.300781 35.679688 12.148438 35.847656 C 12.214844 35.949219 12.632812 36.15625 12.832031 36.226562 C 12.863281 36.210938 12.875 36.253906 12.910156 36.242188 C 13.695312 36.023438 13.988281 37.097656 14.089844 37.652344 C 14.191406 38.207031 14.011719 38.992188 13.625 39.738281 C 13.839844 39.964844 14.03125 40.222656 14.167969 40.46875 Z M 24.613281 16.667969 C 25.898438 15.75 25.742188 14.542969 25.324219 13.738281 C 25.144531 13.398438 25.769531 12.875 26.621094 13.480469 C 25.921875 12.207031 25.050781 12.71875 24.90625 13.175781 C 24.714844 12.488281 23.714844 11.9375 23.136719 12.554688 C 23.617188 12.417969 24.234375 12.800781 24.292969 13.324219 C 23.785156 13.066406 23.046875 13.601562 22.910156 14.269531 C 22.816406 14.726562 23.152344 15.199219 23.5625 15.351562 C 24.027344 15.527344 24.4375 15.210938 24.511719 14.867188 C 24.589844 14.511719 24.261719 14.160156 23.945312 14.160156 C 24.167969 14.4375 24.15625 14.75 23.9375 14.820312 C 23.613281 14.921875 23.46875 14.640625 23.554688 14.371094 C 23.734375 13.816406 24.542969 13.734375 24.847656 14.28125 C 25.058594 14.707031 25.464844 15.480469 24.613281 16.667969 Z M 17.828125 18.5 C 16.980469 18.886719 15.789062 18.238281 14.828125 18.164062 C 14.683594 18.152344 14.59375 18.339844 14.816406 18.382812 C 15.140625 18.453125 15.152344 18.957031 14.746094 18.976562 C 14.480469 18.992188 14.273438 18.664062 14.230469 18.507812 C 14.164062 18.269531 14.351562 18.03125 14.464844 17.929688 C 15.042969 17.421875 16.621094 18.265625 16.394531 17.238281 C 15.308594 17.179688 15.402344 15.71875 14.957031 14.957031 C 15.726562 15.390625 17.183594 15.28125 17.257812 16.367188 C 18.285156 16.578125 17.421875 15.011719 17.921875 14.429688 C 18.023438 14.3125 18.261719 14.121094 18.496094 14.183594 C 18.65625 14.226562 18.988281 14.429688 18.976562 14.695312 C 18.957031 15.101562 18.453125 15.097656 18.382812 14.773438 C 18.332031 14.550781 18.148438 14.640625 18.164062 14.785156 C 18.25 15.746094 18.914062 16.933594 18.539062 17.78125 C 18.722656 17.980469 18.71875 18.289062 18.527344 18.480469 C 18.335938 18.675781 18.027344 18.683594 17.828125 18.5 Z M 27.804688 19.964844 C 27.675781 20.28125 27.578125 20.542969 27.398438 20.84375 C 29.273438 20.660156 31.253906 19.660156 32.117188 17.898438 C 32.671875 16.761719 31.917969 15.210938 33.191406 14.273438 L 32.921875 13.539062 C 30.828125 14.988281 32.078125 16.652344 31.117188 17.945312 C 30.1875 19.199219 29.269531 19.578125 27.804688 19.964844 Z M 20.488281 23.742188 L 19.957031 23.167969 C 18.578125 25.304688 20.371094 26.367188 19.976562 27.929688 C 19.609375 29.382812 18.804688 30.230469 17.65625 31.109375 C 17.660156 31.449219 17.667969 31.730469 17.617188 32.074219 C 19.222656 31.214844 20.761719 29.398438 20.878906 27.503906 C 20.960938 26.238281 19.671875 25.09375 20.488281 23.742188 Z M 23.476562 22.925781 C 22.671875 22.859375 22.171875 22.429688 22.054688 21.628906 C 21.898438 20.554688 23.171875 19.804688 24.054688 19.640625 C 24.875 19.488281 25.835938 19.558594 26.652344 19.914062 C 26.570312 20.105469 26.394531 20.347656 26.277344 20.539062 C 25.601562 20.347656 24.703125 20.265625 24.230469 20.367188 C 23.78125 20.460938 22.691406 20.882812 22.78125 21.519531 C 22.832031 21.847656 22.964844 22.011719 23.28125 22.085938 C 23.367188 22.199219 23.546875 22.875 23.476562 22.925781 Z M 26.53125 17.492188 C 26.507812 17.96875 26.105469 18.316406 25.625 18.300781 C 25.121094 18.285156 24.804688 17.945312 24.667969 17.527344 C 24.488281 16.976562 25.113281 16.5 25.632812 16.445312 C 26.191406 16.378906 26.847656 16.59375 27.273438 17.066406 C 28.90625 18.898438 27.058594 22.121094 24.835938 22.769531 C 24.78125 22.785156 24.78125 22.792969 24.722656 22.808594 C 24.765625 22.46875 24.679688 22.222656 24.601562 22.015625 C 26.03125 21.617188 28.257812 18.730469 26.53125 17.492188 Z M 18.738281 18.820312 C 17.875 18.824219 16.777344 19.222656 16.089844 19.960938 C 15.195312 20.929688 14.742188 22.332031 15.886719 23.28125 C 16.296875 23.625 16.878906 23.644531 17.300781 23.257812 C 18.054688 22.566406 17.6875 20.980469 16.597656 20.855469 C 17.140625 20.164062 17.871094 19.832031 18.734375 19.785156 C 18.710938 19.578125 18.707031 19.039062 18.738281 18.820312 Z M 22.785156 19.972656 C 22.027344 19.445312 21.105469 19.050781 20.164062 18.933594 C 20.125 19.203125 20.167969 19.59375 20.167969 19.894531 C 20.816406 20.0625 21.558594 20.378906 22.097656 20.703125 C 22.136719 20.488281 22.460938 20.058594 22.785156 19.972656 Z M 22.996094 24.679688 C 23.453125 24.617188 23.867188 24.378906 24.214844 23.949219 C 25.015625 22.957031 24.460938 21.585938 23.675781 20.734375 C 23.335938 20.796875 23.027344 21.074219 22.902344 21.378906 C 23.367188 21.910156 23.902344 22.792969 23.464844 23.339844 C 23.351562 23.480469 23.222656 23.570312 23.082031 23.625 C 23.105469 23.847656 23.070312 24.429688 22.996094 24.679688 Z M 21.921875 16.28125 C 21.632812 16.832031 21.851562 17.492188 22.40625 17.800781 C 22.984375 18.117188 23.570312 17.945312 24.003906 17.5625 C 24.574219 17.058594 24.1875 16.105469 23.640625 15.695312 C 23.050781 15.25 22.164062 15.050781 21.367188 15.300781 C 18.296875 16.277344 18.230469 21.15625 20.304688 23.375 C 20.8125 23.917969 21.347656 24.304688 21.871094 24.515625 C 21.9375 24.199219 22.019531 23.792969 21.894531 23.355469 C 21.644531 23.195312 21.386719 22.984375 21.125 22.730469 C 19.746094 21.390625 19.109375 16.523438 21.921875 16.28125 Z M 20.992188 27.273438 C 21.832031 26.683594 22.503906 25.824219 22.746094 24.910156 C 23.140625 23.441406 22.730469 22.296875 21.542969 22.152344 C 21.296875 22.125 21.105469 22.132812 20.902344 22.230469 C 20.921875 22.351562 21.230469 22.699219 21.386719 22.84375 C 21.417969 22.839844 21.414062 22.882812 21.449219 22.886719 C 22.261719 22.984375 22.121094 24.089844 22 24.640625 C 21.882812 25.191406 21.414062 25.847656 20.773438 26.390625 C 20.882812 26.679688 20.960938 26.988281 20.992188 27.273438 Z M 17.511719 26.726562 C 17.984375 26.695312 18.324219 26.285156 18.300781 25.800781 C 18.273438 25.296875 17.925781 24.992188 17.5 24.863281 C 16.945312 24.699219 16.488281 25.335938 16.441406 25.855469 C 16.394531 26.414062 16.621094 27.066406 17.105469 27.480469 C 17.894531 28.152344 18.917969 28.195312 19.882812 27.855469 C 19.957031 27.546875 19.910156 27.246094 19.851562 27.015625 C 19.003906 27.445312 18.097656 27.503906 17.511719 26.726562 Z M 10.746094 41.300781 C 11.167969 41.085938 11.324219 40.578125 11.117188 40.144531 C 10.898438 39.691406 10.460938 39.539062 10.019531 39.585938 C 9.445312 39.644531 9.265625 40.40625 9.421875 40.902344 C 9.589844 41.441406 10.050781 41.957031 10.660156 42.152344 C 11.644531 42.46875 12.605469 42.117188 13.363281 41.433594 C 13.316406 41.121094 13.160156 40.859375 13.015625 40.671875 C 12.398438 41.390625 11.582031 41.792969 10.746094 41.300781 Z M 29.300781 15.894531 C 29.753906 16.042969 30.222656 15.792969 30.382812 15.339844 C 30.546875 14.863281 30.347656 14.445312 30.003906 14.167969 C 29.554688 13.804688 28.886719 14.214844 28.644531 14.675781 C 28.386719 15.175781 28.347656 15.867188 28.636719 16.433594 C 29.109375 17.355469 30.039062 17.789062 31.058594 17.839844 C 31.246094 17.585938 31.320312 17.292969 31.351562 17.054688 C 30.40625 17.128906 29.542969 16.832031 29.300781 15.894531 Z M 10.191406 57.40625 C 10.5 57.042969 10.445312 56.515625 10.082031 56.195312 C 9.703125 55.863281 9.242188 55.894531 8.855469 56.109375 C 8.347656 56.386719 8.480469 57.160156 8.820312 57.558594 C 9.183594 57.984375 9.808594 58.28125 10.445312 58.222656 C 11.476562 58.128906 12.226562 57.433594 12.65625 56.503906 C 12.492188 56.238281 12.246094 56.058594 12.039062 55.9375 C 11.75 56.84375 11.15625 57.53125 10.191406 57.40625 " fill-opacity="1" fill-rule="evenodd"/></g></svg>